<svg width="24" height="24" viewBox="0 0 24 24" fill="none" xmlns="http://www.w3.org/2000/svg">
<path d="M12.0001 2C12.4143 2 12.7501 2.33579 12.7501 2.75V10.5894L19.2491 6.20574C19.5925 5.97411 20.0587 6.06472 20.2903 6.40812C20.5219 6.75152 20.4313 7.21767 20.0879 7.44929L13.3407 12.0004L20.0867 16.5507C20.4301 16.7823 20.5208 17.2485 20.2891 17.5919C20.0575 17.9353 19.5914 18.0259 19.248 17.7942L12.7501 13.4114V21.25C12.7501 21.6642 12.4143 22 12.0001 22C11.5859 22 11.2501 21.6642 11.2501 21.25V13.4105L4.75073 17.7944C4.40734 18.026 3.94119 17.9354 3.70956 17.592C3.47794 17.2486 3.56855 16.7824 3.91194 16.5508L10.6582 12.0004L3.91076 7.44917C3.56736 7.21755 3.47675 6.7514 3.70838 6.408C3.94 6.0646 4.40615 5.97399 4.74955 6.20561L11.2501 10.5903V2.75C11.2501 2.33579 11.5859 2 12.0001 2Z" fill="#8F8F8F"/>
</svg>
