<svg width="24" height="24" viewBox="0 0 24 24" fill="none" xmlns="http://www.w3.org/2000/svg">
<path fill-rule="evenodd" clip-rule="evenodd" d="M9.04139 19H5.23598C3.74922 19 2.78222 17.4354 3.44712 16.1056L3.99991 15V11C3.99991 6.58172 7.58163 3 11.9999 3C16.4182 3 19.9999 6.58172 19.9999 11V15L20.5527 16.1056C21.2176 17.4354 20.2506 19 18.7638 19H14.9584C14.7204 20.4189 13.4864 21.5 11.9999 21.5C10.5134 21.5 9.27943 20.4189 9.04139 19ZM5.49991 15.3541V11C5.49991 7.41015 8.41006 4.5 11.9999 4.5C15.5898 4.5 18.4999 7.41015 18.4999 11V15.3541L19.2111 16.7764C19.3773 17.1088 19.1355 17.5 18.7638 17.5H5.23598C4.86429 17.5 4.62254 17.1088 4.78877 16.7764L5.49991 15.3541ZM13.4146 19H10.5853C10.7912 19.5826 11.3468 20 11.9999 20C12.653 20 13.2086 19.5826 13.4146 19Z" fill="#8F8F8F"/>
</svg>
