<svg width="24" height="24" viewBox="0 0 24 24" fill="none" xmlns="http://www.w3.org/2000/svg">
<path fill-rule="evenodd" clip-rule="evenodd" d="M12 3C12.4142 3 12.75 3.33579 12.75 3.75V14.2852L15.4909 11.7512C15.795 11.47 16.2695 11.4886 16.5507 11.7927C16.8319 12.0969 16.8133 12.5714 16.5091 12.8526L12.5091 16.5507C12.2217 16.8164 11.7783 16.8164 11.4909 16.5507L7.49086 12.8526C7.18671 12.5714 7.1681 12.0969 7.4493 11.7927C7.73049 11.4886 8.205 11.47 8.50914 11.7512L11.25 14.2852V3.75C11.25 3.33579 11.5858 3 12 3ZM2.75 11.5C3.16421 11.5 3.5 11.8358 3.5 12.25V16.25C3.5 18.0449 4.95507 19.5 6.75 19.5H17.25C19.0449 19.5 20.5 18.0449 20.5 16.25V12.25C20.5 11.8358 20.8358 11.5 21.25 11.5C21.6642 11.5 22 11.8358 22 12.25V16.25C22 18.8734 19.8734 21 17.25 21H6.75C4.12665 21 2 18.8734 2 16.25V12.25C2 11.8358 2.33579 11.5 2.75 11.5Z" fill="#8F8F8F"/>
</svg>
