<svg width="24" height="24" viewBox="0 0 24 24" fill="none" xmlns="http://www.w3.org/2000/svg">
<path fill-rule="evenodd" clip-rule="evenodd" d="M20.5 12C20.5 16.6944 16.6944 20.5 12 20.5C7.30558 20.5 3.5 16.6944 3.5 12C3.5 7.30558 7.30558 3.5 12 3.5C16.6944 3.5 20.5 7.30558 20.5 12ZM22 12C22 17.5228 17.5228 22 12 22C6.47715 22 2 17.5228 2 12C2 6.47715 6.47715 2 12 2C17.5228 2 22 6.47715 22 12ZM13.4348 13.7359L8.48056 15.5194L10.2641 10.5652C10.3146 10.425 10.4249 10.3146 10.5652 10.2641L15.5194 8.48062L13.7359 13.4348C13.6854 13.575 13.575 13.6854 13.4348 13.7359ZM8.85275 10.0571L6.70934 16.011C6.42273 16.8072 7.19282 17.5773 7.98895 17.2907L13.9429 15.1472C14.5037 14.9453 14.9453 14.5038 15.1472 13.9429L17.2906 7.989C17.5772 7.19288 16.8071 6.42279 16.011 6.7094L10.0571 8.8528C9.49622 9.05471 9.05466 9.49628 8.85275 10.0571Z" fill="#8F8F8F"/>
</svg>
