<svg width="24" height="24" viewBox="0 0 24 24" fill="none" xmlns="http://www.w3.org/2000/svg">
<path fill-rule="evenodd" clip-rule="evenodd" d="M3.28033 2.21967C2.98744 1.92678 2.51256 1.92678 2.21967 2.21967C1.92678 2.51256 1.92678 2.98744 2.21967 3.28033L7.02311 8.08377C5.19354 8.86362 3.68072 9.91784 2.66331 10.736C1.83359 11.4033 1.83358 12.5967 2.6633 13.264C4.50519 14.7452 7.9707 17 11.9999 17C13.1992 17 14.3485 16.8002 15.4199 16.4806L20.7197 21.7803C21.0126 22.0732 21.4874 22.0732 21.7803 21.7803C22.0732 21.4874 22.0732 21.0126 21.7803 20.7197L3.28033 2.21967ZM14.191 15.2517L13.6045 14.6652C13.1133 14.8805 12.5706 15 11.9999 15C9.79077 15 7.99991 13.2091 7.99991 11C7.99991 10.4293 8.11941 9.88659 8.33475 9.39541L8.1765 9.23716C6.28824 9.9453 4.68729 11.0332 3.60333 11.905C3.56807 11.9333 3.55446 11.9562 3.54895 11.9676C3.54287 11.9803 3.54102 11.991 3.54102 12C3.54102 12.009 3.54287 12.0197 3.54895 12.0324C3.55445 12.0438 3.56807 12.0667 3.60333 12.0951C5.36515 13.5119 8.49278 15.5 11.9999 15.5C12.7509 15.5 13.4845 15.4088 14.191 15.2517ZM9.5328 10.5935C9.51116 10.7258 9.49991 10.8616 9.49991 11C9.49991 12.3807 10.6192 13.5 11.9999 13.5C12.1383 13.5 12.2741 13.4887 12.4065 13.4671L9.5328 10.5935Z" fill="#8F8F8F"/>
<path d="M14.4999 11C14.4999 11.1384 14.4887 11.2741 14.467 11.4064L15.6651 12.6045C15.8804 12.1133 15.9999 11.5706 15.9999 11C15.9999 10.3262 15.8333 9.69125 15.539 9.1342C17.5508 9.83634 19.2585 10.9898 20.3965 11.9049C20.4318 11.9333 20.4454 11.9562 20.4509 11.9676C20.457 11.9803 20.4588 11.991 20.4588 12C20.4588 12.009 20.457 12.0197 20.4509 12.0324C20.4454 12.0438 20.4318 12.0667 20.3965 12.095C19.5903 12.7434 18.4981 13.5114 17.2144 14.1537L18.327 15.2663C19.5542 14.6079 20.5817 13.871 21.3365 13.264C22.1662 12.5967 22.1662 11.4033 21.3365 10.736C19.4946 9.25479 16.0291 6.99998 11.9999 7C11.3878 7 10.7886 7.05205 10.2062 7.14553L11.5935 8.53286C11.7245 8.51145 11.8589 8.50022 11.9959 8.5L11.9999 8.5C13.3806 8.5 14.4999 9.61929 14.4999 11Z" fill="#8F8F8F"/>
</svg>
