<svg width="24" height="24" viewBox="0 0 24 24" fill="none" xmlns="http://www.w3.org/2000/svg">
<path fill-rule="evenodd" clip-rule="evenodd" d="M11.9999 17C16.0291 17 19.4946 14.7452 21.3365 13.264C22.1662 12.5967 22.1662 11.4033 21.3365 10.736C19.4946 9.25479 16.0291 6.99998 11.9999 7C7.97071 7.00002 4.5052 9.25481 2.66331 10.736C1.83359 11.4033 1.83358 12.5967 2.6633 13.264C4.50519 14.7452 7.9707 17 11.9999 17ZM11.9959 8.5C10.617 8.50218 9.49991 9.62064 9.49991 11C9.49991 12.3807 10.6192 13.5 11.9999 13.5C13.3806 13.5 14.4999 12.3807 14.4999 11C14.4999 9.61929 13.3806 8.5 11.9999 8.5M3.60333 11.905C4.74128 10.9898 6.44902 9.83638 8.46079 9.13424C8.16652 9.69128 7.99991 10.3262 7.99991 11C7.99991 13.2091 9.79077 15 11.9999 15C14.209 15 15.9999 13.2091 15.9999 11C15.9999 10.3262 15.8333 9.69125 15.539 9.1342C17.5508 9.83634 19.2585 10.9898 20.3965 11.9049C20.4318 11.9333 20.4454 11.9562 20.4509 11.9676C20.457 11.9803 20.4588 11.991 20.4588 12C20.4588 12.009 20.457 12.0197 20.4509 12.0324C20.4454 12.0438 20.4318 12.0667 20.3965 12.095C18.6347 13.5119 15.507 15.5 11.9999 15.5C8.49278 15.5 5.36515 13.5119 3.60333 12.0951C3.56807 12.0667 3.55445 12.0438 3.54895 12.0324C3.54287 12.0197 3.54102 12.009 3.54102 12C3.54102 11.991 3.54287 11.9803 3.54895 11.9676C3.55446 11.9562 3.56807 11.9333 3.60333 11.905Z" fill="#8F8F8F"/>
</svg>
