<svg width="24" height="24" viewBox="0 0 24 24" fill="none" xmlns="http://www.w3.org/2000/svg">
<path fill-rule="evenodd" clip-rule="evenodd" d="M12.1168 5.17821L13.1719 6.24436C12.5227 6.88683 11.4773 6.88684 10.8281 6.24435C9.15168 4.58522 6.42727 4.58522 4.75085 6.24435C3.08305 7.89495 3.08305 10.5646 4.75085 12.2152L11.6483 19.0415C11.8431 19.2343 12.1569 19.2343 12.3517 19.0415L19.2492 12.2152C20.917 10.5646 20.917 7.89495 19.2492 6.24435C17.5727 4.58521 14.8483 4.58522 13.1719 6.24435L12.1168 5.17821ZM11.8833 5.17821C9.62232 2.9406 5.95663 2.9406 3.6957 5.17821C1.43477 7.41583 1.43477 11.0437 3.6957 13.2813L10.5931 20.1076C11.3725 20.8789 12.6275 20.8789 13.4069 20.1076L20.3043 13.2813C22.5652 11.0437 22.5652 7.41583 20.3043 5.17821C18.0434 2.9406 14.3777 2.9406 12.1168 5.17821C12.0521 5.24222 11.9479 5.24222 11.8833 5.17821Z" fill="#8F8F8F"/>
</svg>
