<svg width="24" height="24" viewBox="0 0 24 24" fill="none" xmlns="http://www.w3.org/2000/svg">
<path fill-rule="evenodd" clip-rule="evenodd" d="M6 22C3.79086 22 2 20.2092 2 18V11.7173C2 10.6208 2.45008 9.57245 3.245 8.81728L9.245 3.11727C10.7889 1.6506 13.2111 1.65061 14.755 3.11728L20.755 8.81728C21.5499 9.57245 22 10.6208 22 11.7173V18C22 20.2092 20.2091 22 18 22H6ZM20.5 11.7173V18C20.5 19.3807 19.3807 20.5 18 20.5L16 20.5V15C16 13.3432 14.6569 12 13 12H11C9.34315 12 8 13.3432 8 15V20.5L6 20.5C4.61929 20.5 3.5 19.3807 3.5 18V11.7173C3.5 11.032 3.7813 10.3768 4.27813 9.90478L10.2781 4.20477C11.243 3.28811 12.757 3.28811 13.7219 4.20478L19.7219 9.90478C20.2187 10.3768 20.5 11.032 20.5 11.7173ZM9.5 20.5V15C9.5 14.1716 10.1716 13.5 11 13.5H13C13.8284 13.5 14.5 14.1716 14.5 15V20.5H9.5Z" fill="#8F8F8F"/>
</svg>
