<svg width="24" height="24" viewBox="0 0 24 24" fill="none" xmlns="http://www.w3.org/2000/svg">
<path d="M3.5 6.75C3.5 4.95507 4.95507 3.5 6.75 3.5H12C12.4142 3.5 12.75 3.16421 12.75 2.75C12.75 2.33579 12.4142 2 12 2H6.75C4.12665 2 2 4.12665 2 6.75V17.25C2 19.8734 4.12665 22 6.75 22H17.25C19.8734 22 22 19.8734 22 17.25V12C22 11.5858 21.6642 11.25 21.25 11.25C20.8358 11.25 20.5 11.5858 20.5 12V17.25C20.5 19.0449 19.0449 20.5 17.25 20.5H6.75C4.95507 20.5 3.5 19.0449 3.5 17.25V6.75Z" fill="#8F8F8F"/>
<path d="M15 2C14.5858 2 14.25 2.33579 14.25 2.75C14.25 3.16421 14.5858 3.5 15 3.5H19.5692L11.9418 11.9991C11.6652 12.3073 11.6908 12.7815 11.9991 13.0582C12.3073 13.3348 12.7815 13.3092 13.0582 13.0009L20.5 4.70862V9C20.5 9.41421 20.8358 9.75 21.25 9.75C21.6642 9.75 22 9.41421 22 9V2.75C22 2.33579 21.6642 2 21.25 2H15Z" fill="#8F8F8F"/>
</svg>
