<svg width="24" height="24" viewBox="0 0 24 24" fill="none" xmlns="http://www.w3.org/2000/svg">
<path fill-rule="evenodd" clip-rule="evenodd" d="M2 8C2 6.89543 2.89543 6 4 6H20C21.1046 6 22 6.89543 22 8V16C22 17.1046 21.1046 18 20 18H4C2.89543 18 2 17.1046 2 16V8ZM18.8971 7.5H5.10295L12 11.1514L18.8971 7.5ZM3.5 8.34862V16C3.5 16.2761 3.72386 16.5 4 16.5H20C20.2761 16.5 20.5 16.2761 20.5 16V8.34862L12.3509 12.6628C12.1314 12.7791 11.8686 12.7791 11.6491 12.6628L3.5 8.34862Z" fill="#8F8F8F"/>
</svg>
