<svg width="24" height="24" viewBox="0 0 24 24" fill="none" xmlns="http://www.w3.org/2000/svg">
<path fill-rule="evenodd" clip-rule="evenodd" d="M2 10.5615C2 9.6438 2.62459 8.84383 3.51493 8.62125L19.5149 4.62125C20.7772 4.30567 22 5.26039 22 6.56153V17.4384C22 18.7396 20.7772 19.6943 19.5149 19.3787L12.6403 17.6601C12.0097 19.0406 10.6169 20 9 20C6.79086 20 5 18.2091 5 16V15.75L3.51493 15.3787C2.62459 15.1561 2 14.3562 2 13.4384V10.5615ZM3.87873 10.0765L19.8787 6.07646C20.1943 5.99757 20.5 6.23624 20.5 6.56153V17.4384C20.5 17.7637 20.1943 18.0024 19.8787 17.9235L3.87873 13.9235C3.65615 13.8679 3.5 13.6679 3.5 13.4384V10.5615C3.5 10.3321 3.65615 10.1321 3.87873 10.0765ZM6.50311 16.1258C6.56863 17.448 7.66147 18.5 9 18.5C9.91039 18.5 10.7071 18.0134 11.1443 17.286L6.50311 16.1258Z" fill="#8F8F8F"/>
</svg>
