<svg width="24" height="24" viewBox="0 0 24 24" fill="none" xmlns="http://www.w3.org/2000/svg">
<path fill-rule="evenodd" clip-rule="evenodd" d="M18.7803 7.28033C19.0732 6.98744 19.0732 6.51256 18.7803 6.21967L14.7803 2.21967C14.4874 1.92678 14.0126 1.92678 13.7197 2.21967C13.4268 2.51256 13.4268 2.98744 13.7197 3.28033L16.4393 6H5.75C3.67893 6 2 7.67893 2 9.75V12.75C2 13.1642 2.33579 13.5 2.75 13.5C3.16421 13.5 3.5 13.1642 3.5 12.75V9.75C3.5 8.50736 4.50736 7.5 5.75 7.5H16.4393L13.7197 10.2197C13.4268 10.5126 13.4268 10.9874 13.7197 11.2803C14.0126 11.5732 14.4874 11.5732 14.7803 11.2803L18.7803 7.28033ZM7.21967 16.7197C6.92678 17.0126 6.92678 17.4874 7.21967 17.7803L11.2197 21.7803C11.5126 22.0732 11.9874 22.0732 12.2803 21.7803C12.5732 21.4874 12.5732 21.0126 12.2803 20.7197L9.56066 18H18.25C20.3211 18 22 16.3211 22 14.25V11.25C22 10.8358 21.6642 10.5 21.25 10.5C20.8358 10.5 20.5 10.8358 20.5 11.25V14.25C20.5 15.4926 19.4926 16.5 18.25 16.5H9.56066L12.2803 13.7803C12.5732 13.4874 12.5732 13.0126 12.2803 12.7197C11.9874 12.4268 11.5126 12.4268 11.2197 12.7197L7.21967 16.7197Z" fill="#8F8F8F"/>
</svg>
