<svg width="24" height="24" viewBox="0 0 24 24" fill="none" xmlns="http://www.w3.org/2000/svg">
<path fill-rule="evenodd" clip-rule="evenodd" d="M3.05306 4.80872C2.83856 3.39303 4.32228 2.33293 5.59205 2.99464L19.8946 10.4481C21.1496 11.1021 21.1496 12.8979 19.8946 13.5519L5.59205 21.0053C4.32228 21.667 2.83856 20.6069 3.05306 19.1913L4.00815 12.8876C4.05677 12.5668 4.30626 12.3135 4.62639 12.2602L6.18761 12L4.62639 11.7398C4.30626 11.6864 4.05677 11.4332 4.00815 11.1123L3.05306 4.80872ZM4.89884 4.32485C4.71745 4.23032 4.50549 4.38177 4.53613 4.58401L5.40971 10.3496L10.873 11.2602C11.2346 11.3205 11.4997 11.6334 11.4997 12C11.4997 12.3666 11.2346 12.6795 10.873 12.7398L5.40971 13.6503L4.53613 19.416C4.50549 19.6182 4.71745 19.7696 4.89884 19.6751L19.2014 12.2217C19.3807 12.1283 19.3807 11.8717 19.2014 11.7783L4.89884 4.32485Z" fill="#8F8F8F"/>
</svg>
