<svg width="24" height="24" viewBox="0 0 24 24" fill="none" xmlns="http://www.w3.org/2000/svg">
<path fill-rule="evenodd" clip-rule="evenodd" d="M21.1319 15.7456C21.4749 14.83 21.1084 13.7935 20.2617 13.3046C20.0574 13.1867 19.947 12.9569 19.968 12.7219C19.9893 12.4841 20.0001 12.2433 20.0001 12C20.0001 11.7571 19.9893 11.5167 19.9681 11.2793C19.9471 11.0437 20.0578 10.8133 20.2627 10.695C21.1094 10.2062 21.4758 9.16964 21.1328 8.2541C20.8231 7.42741 20.3727 6.6473 19.8117 5.96574C19.1903 5.21094 18.1094 5.01004 17.2627 5.49888C17.058 5.61701 16.8033 5.59743 16.6103 5.46111C16.2168 5.18312 15.797 4.93977 15.3554 4.73549C15.143 4.63721 15.0001 4.42831 15.0001 4.19423C15.0001 3.21656 14.2857 2.38091 13.3213 2.22018C12.4505 2.07505 11.5497 2.07505 10.679 2.22018C9.71458 2.38091 9.00014 3.21656 9.00014 4.19423C9.00014 4.4283 8.85728 4.6372 8.64485 4.73549C8.20361 4.93963 7.78411 5.18278 7.39079 5.46053C7.19889 5.59603 6.94562 5.61545 6.74217 5.49799C5.89548 5.00915 4.81457 5.21005 4.19318 5.96486C3.6321 6.64642 3.1817 7.42652 2.872 8.25321C2.52901 9.16875 2.89548 10.2053 3.74217 10.6941C3.94451 10.811 4.05389 11.0386 4.03288 11.2713C4.01121 11.5113 4.00014 11.7544 4.00014 12C4.00014 12.2451 4.01116 12.4875 4.03273 12.727C4.05368 12.9596 3.94434 13.1871 3.74213 13.3038C2.89543 13.7927 2.52896 14.8292 2.87195 15.7448C3.18166 16.5715 3.63205 17.3516 4.19313 18.0331C4.81452 18.7879 5.89543 18.9888 6.74212 18.5C6.9447 18.383 7.19689 18.4024 7.3879 18.5374C7.78206 18.816 8.20252 19.0598 8.64483 19.2645C8.85728 19.3628 9.00014 19.5717 9.00014 19.8057C9.00014 20.7834 9.71458 21.6191 10.679 21.7798C11.5497 21.9249 12.4505 21.9249 13.3213 21.7798C14.2857 21.6191 15.0001 20.7834 15.0001 19.8057C15.0001 19.5717 15.143 19.3627 15.3555 19.2645C15.7972 19.0601 16.2171 18.8166 16.6108 18.5385C16.8034 18.4025 17.0576 18.3829 17.2617 18.5008C18.1084 18.9896 19.1893 18.7887 19.8107 18.0339C20.3718 17.3524 20.8222 16.5723 21.1319 15.7456ZM4.49217 9.3951C5.23567 9.82436 5.59663 10.6328 5.5268 11.4062C5.50918 11.6014 5.50014 11.7994 5.50014 12C5.50014 12.2001 5.50914 12.3977 5.52668 12.5924C5.59633 13.3656 5.23539 14.1738 4.49212 14.6029C4.28658 14.7215 4.18837 14.983 4.27661 15.2185C4.52825 15.8902 4.89532 16.526 5.3512 17.0798C5.51105 17.2739 5.78658 17.3196 5.99212 17.201C6.73669 16.7711 7.61865 16.8636 8.25368 17.3125C8.57415 17.539 8.91571 17.737 9.27466 17.9031C9.97953 18.2292 10.5001 18.9462 10.5001 19.8057C10.5001 20.0431 10.6775 20.2589 10.9256 20.3002C11.6331 20.4181 12.3672 20.4181 13.0747 20.3002C13.3228 20.2589 13.5001 20.0431 13.5001 19.8057C13.5001 18.9462 14.0208 18.2292 14.7256 17.9031C15.0841 17.7372 15.4252 17.5395 15.7454 17.3134C16.3816 16.8639 17.2654 16.7709 18.0117 17.2018C18.2173 17.3204 18.4928 17.2747 18.6527 17.0806C19.1085 16.5268 19.4756 15.891 19.7273 15.2193C19.8155 14.9838 19.7173 14.7224 19.5117 14.6037C18.7664 14.1733 18.4047 13.3631 18.474 12.5883C18.4913 12.3948 18.5001 12.1986 18.5001 12C18.5001 11.8017 18.4913 11.6058 18.4741 11.4127C18.4048 10.6374 18.7667 9.82665 19.5127 9.39599C19.7182 9.27732 19.8164 9.01587 19.7282 8.78033C19.4765 8.10865 19.1095 7.47287 18.6536 6.9191C18.4937 6.72492 18.2182 6.67924 18.0127 6.79791C17.2659 7.22909 16.3816 7.13597 15.7449 6.6863C15.4249 6.46028 15.0839 6.26264 14.7256 6.09685C14.0207 5.77075 13.5001 5.05377 13.5001 4.19423C13.5001 3.95689 13.3228 3.74112 13.0747 3.69977C12.3672 3.58185 11.6331 3.58185 10.9256 3.69977C10.6775 3.74112 10.5001 3.95689 10.5001 4.19423C10.5001 5.05377 9.97954 5.77075 9.27468 6.09685C8.91659 6.26252 8.57582 6.46001 8.25603 6.68583C7.62031 7.13474 6.73755 7.22737 5.99217 6.79703C5.78663 6.67835 5.5111 6.72403 5.35125 6.91821C4.89537 7.47198 4.5283 8.10776 4.27666 8.77945C4.18842 9.01498 4.28663 9.27643 4.49217 9.3951ZM15.5 12C15.5 13.933 13.933 15.5 12 15.5C10.067 15.5 8.5 13.933 8.5 12C8.5 10.067 10.067 8.5 12 8.5C13.933 8.5 15.5 10.067 15.5 12ZM14 12C14 13.1046 13.1046 14 12 14C10.8954 14 10 13.1046 10 12C10 10.8954 10.8954 10 12 10C13.1046 10 14 10.8954 14 12Z" fill="#8F8F8F"/>
</svg>
