<svg width="24" height="24" viewBox="0 0 24 24" fill="none" xmlns="http://www.w3.org/2000/svg">
<path fill-rule="evenodd" clip-rule="evenodd" d="M16.25 2C16.5008 2 16.7349 2.12533 16.874 2.33397L18.874 5.33397C19.042 5.5859 19.042 5.9141 18.874 6.16603L16.874 9.16603C16.7349 9.37467 16.5008 9.5 16.25 9.5C15.9992 9.5 15.7651 9.37467 15.626 9.16603L13.626 6.16603C13.458 5.9141 13.458 5.5859 13.626 5.33397L15.626 2.33397C15.7651 2.12533 15.9992 2 16.25 2ZM15.1514 5.75L16.25 7.39792L17.3486 5.75L16.25 4.10208L15.1514 5.75ZM7.75 5.25C8.09142 5.25 8.38975 5.48059 8.47579 5.81099C8.76431 6.91891 9.34675 8.17752 10.1429 9.21972C10.9447 10.2693 11.9051 11.0259 12.925 11.2707C13.2622 11.3516 13.5 11.6532 13.5 12C13.5 12.3468 13.2622 12.6484 12.925 12.7293C11.9051 12.9741 10.9447 13.7307 10.1429 14.7803C9.34675 15.8225 8.76431 17.0811 8.47579 18.189C8.38975 18.5194 8.09142 18.75 7.75 18.75C7.40858 18.75 7.11025 18.5194 7.02421 18.189C6.73569 17.0811 6.15325 15.8225 5.35712 14.7803C4.55533 13.7307 3.59488 12.9741 2.57497 12.7293C2.23776 12.6484 2 12.3468 2 12C2 11.6532 2.23776 11.3516 2.57497 11.2707C3.59488 11.0259 4.55533 10.2693 5.35712 9.21972C6.15325 8.17752 6.73569 6.91891 7.02421 5.81099C7.11025 5.48059 7.40858 5.25 7.75 5.25ZM4.58635 12C5.34313 12.4918 6.00144 13.1528 6.54913 13.8697C7.01889 14.4847 7.42252 15.1602 7.75 15.8457C8.07748 15.1602 8.48111 14.4847 8.95087 13.8697C9.49856 13.1528 10.1569 12.4918 10.9137 12C10.1569 11.5082 9.49856 10.8472 8.95087 10.1303C8.48111 9.51533 8.07748 8.83981 7.75 8.15429C7.42252 8.83981 7.01889 9.51533 6.54913 10.1303C6.00144 10.8472 5.34313 11.5082 4.58635 12ZM18.25 12.5C18.6075 12.5 18.9153 12.7523 18.9854 13.1029C19.0246 13.2986 19.1503 13.6071 19.3714 13.9977C19.5853 14.3755 19.8615 14.7836 20.157 15.1677C20.4528 15.5523 20.7574 15.8991 21.0232 16.158C21.1563 16.2876 21.2716 16.3872 21.3645 16.4565C21.451 16.5211 21.4915 16.5398 21.4915 16.5398C21.4915 16.5398 21.49 16.5394 21.4872 16.5385C21.7934 16.6406 22 16.9272 22 17.25C22 17.5728 21.7934 17.8594 21.4872 17.9615C21.49 17.9606 21.4915 17.9602 21.4915 17.9602C21.4915 17.9602 21.451 17.9789 21.3645 18.0435C21.2716 18.1128 21.1563 18.2124 21.0232 18.342C20.7574 18.6009 20.4528 18.9477 20.157 19.3323C19.8615 19.7164 19.5853 20.1245 19.3714 20.5023C19.1503 20.8929 19.0246 21.2014 18.9854 21.3971C18.9153 21.7477 18.6075 22 18.25 22C17.8925 22 17.5847 21.7477 17.5146 21.3971C17.4754 21.2014 17.3497 20.8929 17.1286 20.5023C16.9147 20.1245 16.6385 19.7164 16.343 19.3323C16.0472 18.9477 15.7426 18.6009 15.4768 18.342C15.3437 18.2124 15.2284 18.1128 15.1355 18.0435C15.049 17.9789 15.0085 17.9602 15.0085 17.9602C15.0085 17.9602 15.01 17.9606 15.0128 17.9615C14.7066 17.8594 14.5 17.5728 14.5 17.25C14.5 16.9272 14.7066 16.6406 15.0128 16.5385C15.01 16.5394 15.0085 16.5398 15.0085 16.5398C15.0085 16.5398 15.049 16.5211 15.1355 16.4565C15.2284 16.3872 15.3437 16.2876 15.4768 16.158C15.7426 15.8991 16.0472 15.5523 16.343 15.1677C16.6385 14.7836 16.9147 14.3755 17.1286 13.9977C17.3497 13.6071 17.4754 13.2986 17.5146 13.1029C17.5847 12.7523 17.8925 12.5 18.25 12.5ZM16.5053 17.25C16.5113 17.2558 16.5173 17.2615 16.5232 17.2673C16.8511 17.5866 17.2028 17.9898 17.532 18.4177C17.7862 18.7482 18.0333 19.1017 18.25 19.4527C18.4667 19.1017 18.7138 18.7482 18.968 18.4177C19.2972 17.9898 19.6489 17.5866 19.9768 17.2673C19.9827 17.2615 19.9887 17.2558 19.9947 17.25C19.9887 17.2442 19.9827 17.2385 19.9768 17.2327C19.6489 16.9134 19.2972 16.5102 18.968 16.0823C18.7138 15.7518 18.4667 15.3983 18.25 15.0473C18.0333 15.3983 17.7862 15.7518 17.532 16.0823C17.2028 16.5102 16.8511 16.9134 16.5232 17.2327C16.5173 17.2385 16.5113 17.2442 16.5053 17.25Z" fill="#8F8F8F"/>
</svg>
