<svg width="24" height="24" viewBox="0 0 24 24" fill="none" xmlns="http://www.w3.org/2000/svg">
<path d="M4 3.5H10C10.2761 3.5 10.5 3.72386 10.5 4V6H12V4C12 2.89543 11.1046 2 10 2H4C2.89543 2 2 2.89543 2 4V10C2 11.1046 2.89543 12 4 12H6V10.5H4C3.72386 10.5 3.5 10.2761 3.5 10V4C3.5 3.72386 3.72386 3.5 4 3.5Z" fill="#8F8F8F"/>
<path fill-rule="evenodd" clip-rule="evenodd" d="M14 12C12.8954 12 12 12.8954 12 14V20C12 21.1046 12.8954 22 14 22H20C21.1046 22 22 21.1046 22 20V14C22 12.8954 21.1046 12 20 12H14ZM20.5 14C20.5 13.7239 20.2761 13.5 20 13.5H14C13.7239 13.5 13.5 13.7239 13.5 14V20C13.5 20.2761 13.7239 20.5 14 20.5H20C20.2761 20.5 20.5 20.2761 20.5 20V14Z" fill="#8F8F8F"/>
<path d="M15.5 9C15.5 8.72386 15.2761 8.5 15 8.5H9C8.72386 8.5 8.5 8.72386 8.5 9V15C8.5 15.2761 8.72386 15.5 9 15.5H11V17H9C7.89543 17 7 16.1046 7 15V9C7 7.89543 7.89543 7 9 7H15C16.1046 7 17 7.89543 17 9V11H15.5V9Z" fill="#8F8F8F"/>
</svg>
