<svg width="24" height="24" viewBox="0 0 24 24" fill="none" xmlns="http://www.w3.org/2000/svg">
<path fill-rule="evenodd" clip-rule="evenodd" d="M7 12C7 10.3431 8.34315 9 10 9H14C15.6569 9 17 10.3431 17 12C17 13.6569 15.6569 15 14 15H10C8.34315 15 7 13.6569 7 12ZM10 10.5H14C14.8284 10.5 15.5 11.1716 15.5 12C15.5 12.8284 14.8284 13.5 14 13.5H10C9.17157 13.5 8.5 12.8284 8.5 12C8.5 11.1716 9.17157 10.5 10 10.5Z" fill="#8F8F8F"/>
<path fill-rule="evenodd" clip-rule="evenodd" d="M2 8C2 6.89543 2.89543 6 4 6H20C21.1046 6 22 6.89543 22 8V9.5C22 9.77614 21.7727 9.99359 21.5051 10.0617C20.6399 10.282 20 11.0663 20 12C20 12.9337 20.6399 13.718 21.5051 13.9383C21.7727 14.0064 22 14.2239 22 14.5V16C22 17.1046 21.1046 18 20 18H4C2.89543 18 2 17.1046 2 16V14.5C2 14.2239 2.22733 14.0064 2.49494 13.9383C3.36012 13.718 4 12.9337 4 12C4 11.0663 3.36012 10.282 2.49494 10.0617C2.22733 9.99359 2 9.77614 2 9.5V8ZM3.5 8C3.5 7.72386 3.72386 7.5 4 7.5H20C20.2761 7.5 20.5 7.72386 20.5 8V8.83731C19.318 9.39884 18.5 10.6025 18.5 12C18.5 13.3975 19.318 14.6012 20.5 15.1627V16C20.5 16.2761 20.2761 16.5 20 16.5H4C3.72386 16.5 3.5 16.2761 3.5 16V15.1627C4.68198 14.6012 5.5 13.3975 5.5 12C5.5 10.6025 4.68198 9.39884 3.5 8.83731V8Z" fill="#8F8F8F"/>
</svg>
