<svg width="19" height="15" viewBox="0 0 19 15" fill="none" xmlns="http://www.w3.org/2000/svg">
<path d="M16.5 0.5C17.4713 0.5 18.25 1.27875 18.25 2.25V12.75C18.25 13.7213 17.4713 14.5 16.5 14.5H2.5C1.52875 14.5 0.75 13.7213 0.75 12.75V2.25C0.75 1.27875 1.52875 0.5 2.5 0.5H16.5ZM6.4375 10.125V4.875H5.34375V7.9375L3.15625 4.875H2.0625V10.125H3.15625V7.0625L5.3875 10.125H6.4375ZM10.8125 5.9775V4.875H7.3125V10.125H10.8125V9.03125H8.625V8.06H10.8125V6.9575H8.625V5.9775H10.8125ZM16.9375 9.25V4.875H15.8438V8.8125H14.8637V5.75H13.77V8.8125H12.7812V4.875H11.6875V9.25C11.6875 9.48206 11.7797 9.70462 11.9438 9.86872C12.1079 10.0328 12.3304 10.125 12.5625 10.125H16.0625C16.2946 10.125 16.5171 10.0328 16.6812 9.86872C16.8453 9.70462 16.9375 9.48206 16.9375 9.25Z" fill="white" fill-opacity="0.4"/>
</svg>
