<svg width="24" height="24" viewBox="0 0 24 24" fill="none" xmlns="http://www.w3.org/2000/svg">
    <path d="M7.25 14C7.25 13.5858 7.58579 13.25 8 13.25H12C12.4142 13.25 12.75 13.5858 12.75 14C12.75 14.4142 12.4142 14.75 12 14.75H8C7.58579 14.75 7.25 14.4142 7.25 14Z" fill="#8F8F8F"/>
    <path d="M8 9.25C7.58579 9.25 7.25 9.58579 7.25 10C7.25 10.4142 7.58579 10.75 8 10.75H16C16.4142 10.75 16.75 10.4142 16.75 10C16.75 9.58579 16.4142 9.25 16 9.25H8Z" fill="#8F8F8F"/>
    <path fill-rule="evenodd" clip-rule="evenodd" d="M22 12C22 17.5228 17.5228 22 12 22C10.2021 22 8.51494 21.5255 7.05703 20.6949C6.7958 20.5461 6.48442 20.5052 6.19919 20.6003L3.89722 21.3675C3.11545 21.6281 2.37172 20.8844 2.63233 20.1026L3.39969 17.8008C3.49477 17.5155 3.45386 17.2041 3.30503 16.9429C2.47447 15.485 2 13.7979 2 12C2 6.47715 6.47715 2 12 2C17.5228 2 22 6.47715 22 12ZM12 20.5C16.6944 20.5 20.5 16.6944 20.5 12C20.5 7.30558 16.6944 3.5 12 3.5C7.30558 3.5 3.5 7.30558 3.5 12C3.5 13.5307 3.90329 14.9628 4.60837 16.2004C4.94889 16.7981 5.06435 17.5503 4.8227 18.2751L4.3716 19.6283L5.72487 19.1772C6.44973 18.9356 7.20186 19.0511 7.79956 19.3916C9.03719 20.0967 10.4692 20.5 12 20.5Z" fill="#8F8F8F"/>
</svg>
