<svg width="32" height="32" viewBox="0 0 32 32" fill="none" xmlns="http://www.w3.org/2000/svg">
    <path fill-rule="evenodd" clip-rule="evenodd"
          d="M25.4234 22.2965C26.6687 20.4327 27.3334 18.2415 27.3334 16C27.3334 15.8131 27.3289 15.6274 27.32 15.4429C27.2933 14.8912 27.7189 14.4224 28.2705 14.3958C28.8222 14.3691 29.291 14.7947 29.3177 15.3463C29.3281 15.563 29.3334 15.7809 29.3334 16C29.3334 16.6723 29.2826 17.3408 29.1826 18C28.8903 19.9265 28.1779 21.774 27.0863 23.4076C25.6213 25.6003 23.5389 27.3092 21.1025 28.3184C18.6662 29.3276 15.9853 29.5916 13.3989 29.0772C10.8125 28.5627 8.4367 27.2928 6.572 25.4281C4.7073 23.5634 3.43742 21.1876 2.92295 18.6012C2.40848 16.0148 2.67253 13.3339 3.68169 10.8976C4.69086 8.46123 6.39983 6.37884 8.59248 4.91376C10.2261 3.82219 12.0736 3.10982 14.0001 2.81753C14.6593 2.71751 15.3278 2.66669 16.0001 2.66669C16.2192 2.66669 16.4371 2.67198 16.6538 2.68245C17.2054 2.70912 17.631 3.17793 17.6043 3.72957C17.5777 4.28121 17.1089 4.70679 16.5572 4.68012C16.3727 4.6712 16.187 4.66669 16.0001 4.66669C13.7586 4.66669 11.5674 5.33138 9.70362 6.5767C7.83987 7.82202 6.38725 9.59205 5.52945 11.6629C4.67166 13.7338 4.44722 16.0126 4.88452 18.211C5.32182 20.4095 6.40122 22.4289 7.98621 24.0139C9.57121 25.5989 11.5906 26.6783 13.7891 27.1156C15.9875 27.5529 18.2663 27.3284 20.3372 26.4707C22.4081 25.6129 24.1781 24.1602 25.4234 22.2965ZM19.2148 4.0476C19.4009 3.52761 19.9733 3.25692 20.4933 3.44301C20.9062 3.59079 21.3097 3.75833 21.7026 3.94448C22.2017 4.18096 22.4146 4.77725 22.1782 5.27635C21.9417 5.77545 21.3454 5.98835 20.8463 5.75188C20.5126 5.59377 20.17 5.45152 19.8194 5.32606C19.2994 5.13998 19.0287 4.56759 19.2148 4.0476ZM23.5419 6.18973C23.9129 5.78062 24.5453 5.74974 24.9544 6.12075C25.2776 6.41382 25.5863 6.72252 25.8794 7.04568C26.2504 7.45478 26.2195 8.0872 25.8104 8.45821C25.4013 8.82922 24.7689 8.79834 24.3979 8.38923C24.1485 8.11428 23.8858 7.85161 23.6109 7.60226C23.2018 7.23124 23.1709 6.59883 23.5419 6.18973ZM26.7238 9.82194C27.2229 9.58547 27.8192 9.79837 28.0556 10.2975C28.2418 10.6904 28.4093 11.0939 28.5571 11.5068C28.7432 12.0268 28.4725 12.5992 27.9525 12.7853C27.4325 12.9714 26.8601 12.7007 26.674 12.1807C26.5486 11.8301 26.4063 11.4875 26.2482 11.1538C26.0118 10.6547 26.2247 10.0584 26.7238 9.82194ZM16.0001 9.00002C16.0001 8.44774 15.5524 8.00002 15.0001 8.00002C14.4478 8.00002 14.0001 8.44774 14.0001 9.00002V17C14.0001 17.5523 14.4478 18 15.0001 18H20.3334C20.8857 18 21.3334 17.5523 21.3334 17C21.3334 16.4477 20.8857 16 20.3334 16H16.0001V9.00002Z"
          fill="#8F8F8F"/>
</svg>
