<svg width="24" height="24" viewBox="0 0 24 24" fill="none" xmlns="http://www.w3.org/2000/svg">
    <path d="M14.0457 2.24193L9.8977 2.23193H9.8957C5.5217 2.23193 2.0957 5.65893 2.0957 10.0339C2.0957 14.1319 5.2817 17.2399 9.5607 17.4039V21.2319C9.5607 21.3399 9.6047 21.5179 9.6807 21.6349C9.8227 21.8599 10.0647 21.9819 10.3127 21.9819C10.4507 21.9819 10.5897 21.9439 10.7147 21.8639C10.9787 21.6959 17.1877 17.7239 18.8027 16.3579C20.7047 14.7479 21.8427 12.3879 21.8457 10.0459V10.0289C21.8397 5.66193 18.4157 2.24193 14.0457 2.24093V2.24193ZM17.8327 15.2139C16.6987 16.1739 12.9707 18.6189 11.0607 19.8569V16.6699C11.0607 16.2559 10.7257 15.9199 10.3107 15.9199H9.9147C6.2547 15.9199 3.5967 13.4439 3.5967 10.0339C3.5967 6.49993 6.3647 3.73193 9.8967 3.73193L14.0437 3.74193H14.0457C17.5777 3.74193 20.3457 6.50793 20.3477 10.0379C20.3447 11.9479 19.4057 13.8819 17.8337 15.2139H17.8327Z" fill="#536471"/>
</svg>
