<svg width="17" height="21" viewBox="0 0 17 21" fill="none" xmlns="http://www.w3.org/2000/svg">
    <path d="M7.625 11.375H9.375V12.25H7.625V11.375ZM16.375 4.375V9.625C16.375 14.4375 13.05 18.9875 8.5 20.125C3.95 18.9875 0.625 14.4375 0.625 9.625V4.375L8.5 0.875L16.375 4.375ZM12.875 8.75H10.95C10.775 8.225 10.425 7.7875 9.9875 7.4375L11.0375 6.3875L10.425 5.775L9.2 7H8.5C8.325 7 8.0625 7 7.8875 7.0875L6.6625 5.775L5.9625 6.475L7.0125 7.525C6.575 7.7875 6.225 8.225 6.05 8.75H4.125V9.625H5.875V10.5H4.125V11.375H5.875V12.25H4.125V13.125H6.05C6.4 14.175 7.3625 14.875 8.5 14.875C9.6375 14.875 10.6 14.175 10.95 13.125H12.875V12.25H11.125V11.375H12.875V10.5H11.125V9.625H12.875V8.75ZM7.625 10.5H9.375V9.625H7.625V10.5Z" fill="white" fill-opacity="0.4"/>
</svg>
