<svg width="17" height="17" viewBox="0 0 17 17" fill="none" xmlns="http://www.w3.org/2000/svg">
    <path d="M2.375 0.625H14.625C15.0891 0.625 15.5342 0.809374 15.8624 1.13756C16.1906 1.46575 16.375 1.91087 16.375 2.375V14.625C16.375 15.0891 16.1906 15.5342 15.8624 15.8624C15.5342 16.1906 15.0891 16.375 14.625 16.375H2.375C1.91087 16.375 1.46575 16.1906 1.13756 15.8624C0.809374 15.5342 0.625 15.0891 0.625 14.625V2.375C0.625 1.91087 0.809374 1.46575 1.13756 1.13756C1.46575 0.809374 1.91087 0.625 2.375 0.625ZM4.5625 11.125C4.2144 11.125 3.88056 11.2633 3.63442 11.5094C3.38828 11.7556 3.25 12.0894 3.25 12.4375C3.25 12.7856 3.38828 13.1194 3.63442 13.3656C3.88056 13.6117 4.2144 13.75 4.5625 13.75C4.9106 13.75 5.24444 13.6117 5.49058 13.3656C5.73672 13.1194 5.875 12.7856 5.875 12.4375C5.875 12.0894 5.73672 11.7556 5.49058 11.5094C5.24444 11.2633 4.9106 11.125 4.5625 11.125ZM3.25 6.75V8.5C4.64239 8.5 5.97774 9.05312 6.96231 10.0377C7.94688 11.0223 8.5 12.3576 8.5 13.75H10.25C10.25 11.8935 9.5125 10.113 8.19975 8.80025C6.88699 7.4875 5.10652 6.75 3.25 6.75ZM3.25 3.25V5C5.57064 5 7.79624 5.92187 9.43718 7.56282C11.0781 9.20376 12 11.4294 12 13.75H13.75C13.75 10.9652 12.6438 8.29451 10.6746 6.32538C8.70549 4.35625 6.03477 3.25 3.25 3.25Z" fill="white" fill-opacity="0.8"/>
</svg>
