<svg width="25" height="24" viewBox="0 0 25 24" fill="none" xmlns="http://www.w3.org/2000/svg">
    <path d="M12.6667 21.6381H12.6527C10.0697 21.5901 2.6167 14.8561 2.6167 8.47812C2.6167 5.41412 5.1417 2.72412 8.0197 2.72412C10.3097 2.72412 11.8497 4.30412 12.6657 5.45412C13.4797 4.30612 15.0197 2.72412 17.3107 2.72412C20.1907 2.72412 22.7147 5.41412 22.7147 8.47912C22.7147 14.8551 15.2607 21.5891 12.6777 21.6361H12.6667V21.6381ZM8.0207 4.22512C5.9407 4.22512 4.1177 6.21312 4.1177 8.48012C4.1177 14.2201 11.1517 20.0761 12.6677 20.1381C14.1857 20.0761 21.2177 14.2211 21.2177 8.48012C21.2177 6.21312 19.3947 4.22512 17.3147 4.22512C14.7867 4.22512 13.3747 7.16112 13.3627 7.19012C13.1327 7.75212 12.2067 7.75212 11.9757 7.19012C11.9617 7.16012 10.5507 4.22512 8.0217 4.22512H8.0207Z" fill="#536471"/>
</svg>
