<svg width="24" height="24" viewBox="0 0 24 24" fill="none" xmlns="http://www.w3.org/2000/svg">
    <path d="M17.6359 4.46875C18.0724 4.46875 18.491 4.64215 18.7997 4.9508C19.1083 5.25946 19.2817 5.67808 19.2817 6.11458V17.6354C19.2817 18.0719 19.1083 18.4905 18.7997 18.7992C18.491 19.1079 18.0724 19.2813 17.6359 19.2813H6.11507C5.67857 19.2813 5.25995 19.1079 4.95129 18.7992C4.64264 18.4905 4.46924 18.0719 4.46924 17.6354V6.11458C4.46924 5.67808 4.64264 5.25946 4.95129 4.9508C5.25995 4.64215 5.67857 4.46875 6.11507 4.46875H17.6359ZM17.2244 17.224V12.8625C17.2244 12.151 16.9418 11.4686 16.4387 10.9655C15.9356 10.4624 15.2532 10.1798 14.5417 10.1798C13.8423 10.1798 13.0276 10.6077 12.6326 11.2496V10.3361H10.3366V17.224H12.6326V13.167C12.6326 12.5333 13.1428 12.0149 13.7764 12.0149C14.082 12.0149 14.375 12.1363 14.5911 12.3523C14.8071 12.5684 14.9285 12.8614 14.9285 13.167V17.224H17.2244ZM7.66216 9.04417C8.02882 9.04417 8.38046 8.89851 8.63973 8.63924C8.899 8.37997 9.04466 8.02833 9.04466 7.66167C9.04466 6.89635 8.42747 6.27094 7.66216 6.27094C7.29331 6.27094 6.93957 6.41746 6.67876 6.67827C6.41795 6.93908 6.27143 7.29282 6.27143 7.66167C6.27143 8.42698 6.89684 9.04417 7.66216 9.04417ZM8.80601 17.224V10.3361H6.52653V17.224H8.80601Z" fill="#536471"/>
</svg>
