<svg width="24" height="24" viewBox="0 0 24 24" fill="none" xmlns="http://www.w3.org/2000/svg">
    <path d="M12 3.5C16.067 3.5 19.4669 6.35629 20.303 10.1723C20.9877 10.7451 21.5642 11.4429 21.9974 12.2307C21.9991 12.154 22 12.0771 22 12C22 6.47715 17.5228 2 12 2C6.47715 2 2 6.47715 2 12C2 13.7979 2.47447 15.485 3.30503 16.9429C3.45386 17.2041 3.49477 17.5155 3.39969 17.8008L2.63233 20.1026C2.37172 20.8844 3.11545 21.6281 3.89722 21.3675L6.19919 20.6003C6.48442 20.5052 6.7958 20.5461 7.05703 20.6949C8.51494 21.5255 10.2021 22 12 22C12.0786 22 12.157 21.9991 12.2352 21.9973C11.4481 21.5645 10.7508 20.9886 10.1784 20.3047C9.33068 20.1197 8.53115 19.8084 7.79956 19.3916C7.20186 19.0511 6.44973 18.9356 5.72487 19.1772L4.3716 19.6283L4.8227 18.2751C5.06435 17.5503 4.94889 16.7981 4.60837 16.2004C3.90329 14.9628 3.5 13.5307 3.5 12C3.5 7.30558 7.30558 3.5 12 3.5Z" fill="#8F8F8F"/>
    <path fill-rule="evenodd" clip-rule="evenodd" d="M15.8059 21.6092C12.5992 21.6092 9.9996 19.0104 9.9996 15.8046C9.9996 12.5988 12.5992 10 15.8059 10C19.0126 10 21.6122 12.5988 21.6122 15.8046C21.6122 16.5092 21.4866 17.1844 21.2566 17.8092C21.1702 18.044 21.1539 18.3011 21.2331 18.5385L21.9469 20.6794C22.2076 21.4611 21.4639 22.2049 20.6821 21.9444L18.5395 21.2304C18.3023 21.1514 18.0454 21.1676 17.8107 21.2539C17.1858 21.4837 16.5105 21.6092 15.8059 21.6092ZM11.4996 15.8046C11.4996 18.1816 13.4272 20.1092 15.8059 20.1092C16.3312 20.1092 16.8314 20.0159 17.2929 19.8461C17.7958 19.6612 18.4055 19.6047 19.0137 19.8074L20.2076 20.2052L19.8101 19.0129C19.6072 18.4043 19.6638 17.7941 19.849 17.291C20.0188 16.8297 20.1122 16.3298 20.1122 15.8046C20.1122 13.4276 18.1846 11.5 15.8059 11.5C13.4272 11.5 11.4996 13.4276 11.4996 15.8046Z" fill="#8F8F8F"/>
</svg>
