<svg width="19" height="19" viewBox="0 0 19 19" fill="none" xmlns="http://www.w3.org/2000/svg">
    <path d="M13.875 9.5V1.625C13.875 1.39294 13.7828 1.17038 13.6187 1.00628C13.4546 0.842187 13.2321 0.75 13 0.75H1.625C1.39294 0.75 1.17038 0.842187 1.00628 1.00628C0.842187 1.17038 0.75 1.39294 0.75 1.625V13.875L4.25 10.375H13C13.2321 10.375 13.4546 10.2828 13.6187 10.1187C13.7828 9.95462 13.875 9.73206 13.875 9.5ZM17.375 4.25H15.625V12.125H4.25V13.875C4.25 14.1071 4.34219 14.3296 4.50628 14.4937C4.67038 14.6578 4.89294 14.75 5.125 14.75H14.75L18.25 18.25V5.125C18.25 4.89294 18.1578 4.67038 17.9937 4.50628C17.8296 4.34219 17.6071 4.25 17.375 4.25Z" fill="white" fill-opacity="0.4"/>
</svg>
