<svg width="24" height="24" viewBox="0 0 24 24" fill="none" xmlns="http://www.w3.org/2000/svg">
    <path fill-rule="evenodd" clip-rule="evenodd" d="M15 12C15 13.6569 13.6569 15 12 15C10.3431 15 9 13.6569 9 12C9 10.3431 10.3431 9 12 9C13.6569 9 15 10.3431 15 12ZM13.5 12C13.5 12.8284 12.8284 13.5 12 13.5C11.1716 13.5 10.5 12.8284 10.5 12C10.5 11.1716 11.1716 10.5 12 10.5C12.8284 10.5 13.5 11.1716 13.5 12Z" fill="#8F8F8F"/>
    <path fill-rule="evenodd" clip-rule="evenodd" d="M2 8C2 6.89543 2.89543 6 4 6H20C21.1046 6 22 6.89543 22 8V16C22 17.1046 21.1046 18 20 18H4C2.89543 18 2 17.1046 2 16V8ZM18.75 7.5H20C20.2761 7.5 20.5 7.72386 20.5 8V9.25H19C18.8619 9.25 18.75 9.13807 18.75 9V7.5ZM17.25 7.5H6.75V9C6.75 9.9665 5.9665 10.75 5 10.75H3.5V13.25H5C5.9665 13.25 6.75 14.0335 6.75 15V16.5H17.25V15C17.25 14.0335 18.0335 13.25 19 13.25H20.5V10.75H19C18.0335 10.75 17.25 9.9665 17.25 9V7.5ZM20 16.5H18.75V15C18.75 14.8619 18.8619 14.75 19 14.75H20.5V16C20.5 16.2761 20.2761 16.5 20 16.5ZM5.25 15V16.5H4C3.72386 16.5 3.5 16.2761 3.5 16V14.75H5C5.13807 14.75 5.25 14.8619 5.25 15ZM5.25 7.5H4C3.72386 7.5 3.5 7.72386 3.5 8V9.25H5C5.13807 9.25 5.25 9.13807 5.25 9V7.5Z" fill="#8F8F8F"/>
</svg>
