<svg width="24" height="24" viewBox="0 0 24 24" fill="none" xmlns="http://www.w3.org/2000/svg">
    <path d="M20.4992 3.97797C20.4934 3.88675 20.4506 3.77096 20.3213 3.66481C20.0225 3.41971 19.5386 3.45815 19.2944 3.71175L10.6553 12.6831C10.2214 12.4146 9.74066 12.2167 9.22852 12.1049C9.31177 11.9515 9.41793 11.8056 9.54727 11.6713L18.2139 2.67129C19.0089 1.84573 20.3784 1.77137 21.2727 2.5052C22.1671 3.23904 22.2477 4.50318 21.4527 5.32875L12.786 14.3288C12.6721 14.447 12.5464 14.5499 12.412 14.6372C12.191 14.1797 11.8993 13.7639 11.5513 13.4048C11.6089 13.3733 11.6612 13.3343 11.7055 13.2883L20.3722 4.28829C20.4778 4.17864 20.505 4.06832 20.4992 3.97797Z" fill="#8F8F8F"/>
    <path fill-rule="evenodd" clip-rule="evenodd" d="M4.20007 16.8571L4.20022 16.891C4.18705 18.3653 3.31333 18.9831 2.58345 19.2419C2.06293 19.4265 1.76613 19.8562 2.18136 20.2203C3.08952 21.0168 4.94239 22 6.79525 22C9.40667 22 11.1771 20.3333 11.768 18.3416C11.9061 17.8762 11.9798 17.3929 11.9847 16.9091L11.9849 16.8963L11.985 16.8573C11.985 16.3363 11.8804 15.8392 11.6915 15.3858C11.1079 13.9854 9.71627 13 8.09239 13C5.94272 13 4.20007 14.7269 4.20007 16.8571ZM10.4847 16.8571L10.4849 16.8826C10.4723 18.7287 9.09194 20.5 6.79525 20.5C5.9801 20.5 5.12628 20.234 4.4151 19.889C4.55144 19.7698 4.68411 19.6361 4.80977 19.4863C5.36318 18.8267 5.69073 17.9597 5.70016 16.9044L5.70016 16.878L5.70007 16.8571C5.70007 15.5681 6.75828 14.5 8.09239 14.5C9.4265 14.5 10.4847 15.5681 10.4847 16.8571Z" fill="#8F8F8F"/>
</svg>
