<svg width="21" height="21" viewBox="0 0 21 21" fill="none" xmlns="http://www.w3.org/2000/svg">
    <path d="M7.875 3.5L10.0625 8.3125L14.875 10.5L10.0625 12.6875L7.875 17.5L5.6875 12.6875L0.875 10.5L5.6875 8.3125L7.875 3.5ZM7.875 7.72625L7 9.625L5.10125 10.5L7 11.375L7.875 13.2738L8.75 11.375L10.6488 10.5L8.75 9.625L7.875 7.72625ZM16.625 7.875L15.5225 5.4775L13.125 4.375L15.5225 3.28125L16.625 0.875L17.7188 3.28125L20.125 4.375L17.7188 5.4775L16.625 7.875ZM16.625 20.125L15.5225 17.7275L13.125 16.625L15.5225 15.5312L16.625 13.125L17.7188 15.5312L20.125 16.625L17.7188 17.7275L16.625 20.125Z" fill="white" fill-opacity="0.4"/>
</svg>
