<svg width="19" height="19" viewBox="0 0 19 19" fill="none" xmlns="http://www.w3.org/2000/svg">
    <path d="M9.5 15.8C7.3125 15.8 5.37875 14.68 4.25 13C4.27625 11.25 7.75 10.2875 9.5 10.2875C11.25 10.2875 14.7238 11.25 14.75 13C14.1715 13.8614 13.3901 14.5673 12.4746 15.0555C11.5591 15.5438 10.5376 15.7995 9.5 15.8ZM9.5 3.375C10.1962 3.375 10.8639 3.65156 11.3562 4.14384C11.8484 4.63613 12.125 5.30381 12.125 6C12.125 6.69619 11.8484 7.36387 11.3562 7.85616C10.8639 8.34844 10.1962 8.625 9.5 8.625C8.80381 8.625 8.13613 8.34844 7.64384 7.85616C7.15156 7.36387 6.875 6.69619 6.875 6C6.875 5.30381 7.15156 4.63613 7.64384 4.14384C8.13613 3.65156 8.80381 3.375 9.5 3.375ZM9.5 0.75C8.35093 0.75 7.21312 0.976325 6.15152 1.41605C5.08992 1.85578 4.12533 2.5003 3.31282 3.31282C1.67187 4.95376 0.75 7.17936 0.75 9.5C0.75 11.8206 1.67187 14.0462 3.31282 15.6872C4.12533 16.4997 5.08992 17.1442 6.15152 17.5839C7.21312 18.0237 8.35093 18.25 9.5 18.25C11.8206 18.25 14.0462 17.3281 15.6872 15.6872C17.3281 14.0462 18.25 11.8206 18.25 9.5C18.25 4.66125 14.3125 0.75 9.5 0.75Z" fill="white" fill-opacity="0.4"/>
</svg>
