<svg width="25" height="24" viewBox="0 0 25 24" fill="none" xmlns="http://www.w3.org/2000/svg">
    <g clip-path="url(#clip0_207_1008)">
        <path d="M24.1037 15.6699C23.8117 15.3769 23.3367 15.3769 23.0437 15.6699L20.8237 17.8899V7.64991C20.8237 5.58191 19.1407 3.89991 17.0737 3.89991H11.2237C10.8097 3.89991 10.4737 4.23591 10.4737 4.64991C10.4737 5.06391 10.8097 5.39991 11.2237 5.39991H17.0737C18.3137 5.39991 19.3237 6.40991 19.3237 7.64991V17.8899L17.1037 15.6699C16.8107 15.3769 16.3357 15.3769 16.0437 15.6699C15.7517 15.9629 15.7497 16.4379 16.0437 16.7299L19.5437 20.2299C19.6887 20.3769 19.8807 20.4499 20.0737 20.4499C20.2667 20.4499 20.4567 20.3779 20.6037 20.2299L24.1037 16.7299C24.3977 16.4379 24.3977 15.9629 24.1037 15.6699ZM13.4437 18.9499H7.59372C6.35372 18.9499 5.34372 17.9399 5.34372 16.6999V6.45991L7.56371 8.67991C7.71171 8.82691 7.90372 8.89991 8.09572 8.89991C8.28772 8.89991 8.47971 8.82691 8.62571 8.67991C8.91871 8.38691 8.91871 7.91191 8.62571 7.61991L5.12571 4.11991C4.83271 3.82591 4.35772 3.82591 4.06572 4.11991L0.565715 7.61991C0.271715 7.91191 0.271715 8.38691 0.565715 8.67991C0.859715 8.97291 1.33271 8.97291 1.62571 8.67991L3.84572 6.45991V16.6999C3.84572 18.7679 5.52872 20.4499 7.59572 20.4499H13.4457C13.8597 20.4499 14.1957 20.1139 14.1957 19.6999C14.1957 19.2859 13.8587 18.9499 13.4457 18.9499H13.4437Z" fill="#536471"/>
    </g>
    <defs>
        <clipPath id="clip0_207_1008">
            <rect width="24" height="24" fill="white" transform="translate(0.333496)"/>
        </clipPath>
    </defs>
</svg>
