<svg width="17" height="17" viewBox="0 0 17 17" fill="none" xmlns="http://www.w3.org/2000/svg">
    <path d="M13.0938 8.5C13.0938 8.70125 13.0763 8.9025 13.05 9.095L14.345 10.11C14.4588 10.2063 14.4938 10.3637 14.415 10.5037L13.19 12.6212C13.1113 12.7525 12.9538 12.805 12.8138 12.7525L11.2912 12.14C10.9762 12.385 10.6263 12.5863 10.25 12.7438L10.0312 14.3625C10.005 14.5113 9.87375 14.625 9.725 14.625H7.275C7.12625 14.625 6.995 14.5113 6.96875 14.3625L6.75 12.7438C6.365 12.5863 6.02375 12.385 5.70875 12.14L4.18625 12.7525C4.04625 12.805 3.88875 12.7525 3.81 12.6212L2.585 10.5037C2.54772 10.4406 2.53429 10.3661 2.54713 10.2939C2.55997 10.2217 2.59823 10.1565 2.655 10.11L3.95 9.095C3.92375 8.9025 3.90625 8.70125 3.90625 8.5C3.90625 8.29875 3.92375 8.0975 3.95 7.905L2.655 6.89C2.59853 6.84333 2.56049 6.77811 2.54767 6.70598C2.53485 6.63386 2.54808 6.55952 2.585 6.49625L3.81 4.37875C3.88875 4.23875 4.04625 4.18625 4.18625 4.23875L5.70875 4.86C6.02375 4.615 6.365 4.405 6.75 4.25625L6.96875 2.62875C6.995 2.48875 7.12625 2.375 7.275 2.375H9.725C9.87375 2.375 10.005 2.48875 10.0312 2.62875L10.25 4.25625C10.6263 4.405 10.9762 4.615 11.2912 4.86L12.8138 4.23875C12.9538 4.18625 13.1113 4.23875 13.19 4.37875L14.415 6.49625C14.4938 6.6275 14.4588 6.79375 14.345 6.89L13.05 7.905C13.0763 8.0975 13.0938 8.29875 13.0938 8.5ZM14.625 0.625H2.375C1.40375 0.625 0.625 1.40375 0.625 2.375V14.625C0.625 15.0891 0.809374 15.5342 1.13756 15.8624C1.46575 16.1906 1.91087 16.375 2.375 16.375H14.625C15.0891 16.375 15.5342 16.1906 15.8624 15.8624C16.1906 15.5342 16.375 15.0891 16.375 14.625V2.375C16.375 1.91087 16.1906 1.46575 15.8624 1.13756C15.5342 0.809374 15.0891 0.625 14.625 0.625ZM8.5 6.75C7.52875 6.75 6.75 7.52875 6.75 8.5C6.75 8.96413 6.93437 9.40925 7.26256 9.73744C7.59075 10.0656 8.03587 10.25 8.5 10.25C8.96413 10.25 9.40925 10.0656 9.73744 9.73744C10.0656 9.40925 10.25 8.96413 10.25 8.5C10.25 8.03587 10.0656 7.59075 9.73744 7.26256C9.40925 6.93437 8.96413 6.75 8.5 6.75Z" fill="white" fill-opacity="0.4"/>
</svg>
