<svg width="24" height="24" viewBox="0 0 24 24" fill="none" xmlns="http://www.w3.org/2000/svg">
    <path fill-rule="evenodd" clip-rule="evenodd" d="M12 3.5C11.3096 3.5 10.75 4.05964 10.75 4.75V5H13.25V4.75C13.25 4.05964 12.6904 3.5 12 3.5ZM9.25 4.75V5H5.50259H4H2.75C2.33579 5 2 5.33579 2 5.75C2 6.16421 2.33579 6.5 2.75 6.5H4.08824L4.88926 20.1174C4.95145 21.1746 5.82686 22 6.88581 22H17.1142C18.1731 22 19.0486 21.1746 19.1107 20.1174L19.9118 6.5H21.25C21.6642 6.5 22 6.16421 22 5.75C22 5.33579 21.6642 5 21.25 5H20H18.4974H14.75V4.75C14.75 3.23122 13.5188 2 12 2C10.4812 2 9.25 3.23122 9.25 4.75ZM5.59083 6.5L6.38667 20.0294C6.40222 20.2936 6.62107 20.5 6.88581 20.5H17.1142C17.3789 20.5 17.5978 20.2936 17.6133 20.0294L18.4092 6.5H5.59083ZM10.5 9.5C10.5 9.08579 10.1642 8.75 9.75 8.75C9.33579 8.75 9 9.08579 9 9.5V17.5C9 17.9142 9.33579 18.25 9.75 18.25C10.1642 18.25 10.5 17.9142 10.5 17.5V9.5ZM15 9.5C15 9.08579 14.6642 8.75 14.25 8.75C13.8358 8.75 13.5 9.08579 13.5 9.5V17.5C13.5 17.9142 13.8358 18.25 14.25 18.25C14.6642 18.25 15 17.9142 15 17.5V9.5Z" fill="#8F8F8F"/>
</svg>
