<svg width="24" height="24" viewBox="0 0 24 24" fill="none" xmlns="http://www.w3.org/2000/svg">
<path d="M20.4825 6.93746C19.8489 7.22548 19.1658 7.41475 18.4581 7.50527C19.1823 7.06913 19.7419 6.37788 20.0052 5.54673C19.3222 5.95819 18.5651 6.24621 17.7669 6.41079C17.1168 5.70308 16.2033 5.29163 15.1665 5.29163C13.2326 5.29163 11.6526 6.87163 11.6526 8.82194C11.6526 9.10173 11.6855 9.37329 11.7431 9.6284C8.81355 9.48027 6.2049 8.07308 4.46855 5.94173C4.16407 6.46017 3.99126 7.06913 3.99126 7.711C3.99126 8.93715 4.60844 10.0234 5.56303 10.6406C4.97876 10.6406 4.43563 10.476 3.95834 10.2291V10.2538C3.95834 11.9655 5.17626 13.3974 6.78917 13.7183C6.27133 13.86 5.72769 13.8797 5.20094 13.7759C5.42445 14.4774 5.86219 15.0913 6.45261 15.5311C7.04304 15.971 7.75647 16.2148 8.49261 16.2282C7.24476 17.2161 5.69798 17.75 4.10646 17.7424C3.82667 17.7424 3.54688 17.7259 3.26709 17.693C4.83063 18.6969 6.69042 19.2812 8.68188 19.2812C15.1665 19.2812 18.7297 13.8993 18.7297 9.2334C18.7297 9.07704 18.7297 8.92892 18.7215 8.77256C19.4127 8.27881 20.0052 7.6534 20.4825 6.93746Z" fill="#536471"/>
</svg>
