<svg width="24" height="24" viewBox="0 0 24 24" fill="none" xmlns="http://www.w3.org/2000/svg">
    <path d="M11.2501 16.75C11.2501 17.1642 11.5858 17.5 12.0001 17.5C12.4143 17.5 12.7501 17.1642 12.7501 16.75C12.7501 16.3358 12.4143 16 12.0001 16C11.5858 16 11.2501 16.3358 11.2501 16.75Z"
          fill="#8F8F8F"/>
    <path d="M12.0001 14.5C11.5858 14.5 11.2501 14.1642 11.2501 13.75V8.25C11.2501 7.83578 11.5858 7.5 12.0001 7.5C12.4143 7.5 12.7501 7.83578 12.7501 8.25V13.75C12.7501 14.1642 12.4143 14.5 12.0001 14.5Z"
          fill="#8F8F8F"/>
    <path fill-rule="evenodd" clip-rule="evenodd"
          d="M12.8826 3.4059C12.5062 2.69966 11.4939 2.69966 11.1176 3.4059L2.39134 19.7797C2.03636 20.4458 2.51906 21.25 3.27384 21.25H20.7263C21.4811 21.25 21.9638 20.4458 21.6088 19.7797L12.8826 3.4059ZM12.0001 4.93933L4.10688 19.75H19.8932L12.0001 4.93933Z"
          fill="#8F8F8F"/>
</svg>
