<svg width="24" height="24" viewBox="0 0 24 24" fill="none" xmlns="http://www.w3.org/2000/svg">
    <g clip-path="url(#clip0_389_3620)">
        <path fill-rule="evenodd" clip-rule="evenodd"
              d="M13.0393 0.664164L3.65688 10.0464C2.37137 11.3319 3.07665 13.5327 4.8699 13.8316L7.72717 14.3078C7.90914 14.3381 8.09069 14.3608 8.27149 14.3761C8.22481 14.5319 8.18343 14.6905 8.14761 14.8517L6.72119 21.2705C6.2361 23.4534 8.90237 24.917 10.4835 23.3358L19.8659 13.9536C21.1514 12.6681 20.4462 10.4673 18.6529 10.1684L15.7956 9.69222C15.6137 9.66189 15.4321 9.63921 15.2513 9.62394C15.298 9.46811 15.3394 9.30951 15.3752 9.14831L16.8016 2.72947C17.2867 0.546628 14.6204 -0.916993 13.0393 0.664164Z"
              fill="white"/>
    </g>
    <defs>
        <clipPath id="clip0_389_3620">
            <rect width="24" height="24" fill="white"/>
        </clipPath>
    </defs>
</svg>
