<svg width="24" height="24" viewBox="0 0 24 24" fill="none" xmlns="http://www.w3.org/2000/svg">
<path fill-rule="evenodd" clip-rule="evenodd" d="M17 3.5H7C6.72386 3.5 6.5 3.72386 6.5 4V19.8902L10.3372 16.4723C11.285 15.6281 12.715 15.6281 13.6628 16.4723L17.5 19.8902V4C17.5 3.72386 17.2761 3.5 17 3.5ZM7 2C5.89543 2 5 2.89543 5 4V21.0051C5 21.8684 6.02045 22.3261 6.66513 21.7519L11.3349 17.5924C11.714 17.2547 12.286 17.2547 12.6651 17.5924L17.3349 21.7519C17.9796 22.3261 19 21.8684 19 21.0051V4C19 2.89543 18.1046 2 17 2H7Z" fill="currentColor"/>
</svg>
