<svg width="24" height="24" viewBox="0 0 24 24" fill="none" xmlns="http://www.w3.org/2000/svg">
<path fill-rule="evenodd" clip-rule="evenodd" d="M12.0432 5.25105L12.1167 5.17821C14.3777 2.9406 18.0434 2.9406 20.3043 5.17821C22.5652 7.41583 22.5652 11.0437 20.3043 13.2813L13.4069 20.1076C12.6275 20.8789 11.3725 20.8789 10.5931 20.1076L3.6957 13.2813C1.43477 11.0437 1.43477 7.41583 3.6957 5.17821C5.95663 2.9406 9.62232 2.9406 11.8832 5.17821L11.9569 5.25111C11.9855 5.24944 12.0143 5.2494 12.0432 5.25105ZM12.2701 7.13685L11.5353 8.60636L13.2785 9.30364C13.4733 9.38154 13.6265 9.53742 13.701 9.73346C13.7756 9.92951 13.7646 10.1478 13.6708 10.3354L12.6708 12.3354C12.4856 12.7059 12.0351 12.8561 11.6646 12.6708C11.2941 12.4856 11.1439 12.0351 11.3292 11.6646L11.9647 10.3936L10.2215 9.69636C10.0267 9.61846 9.8735 9.46258 9.79896 9.26654C9.72442 9.07049 9.73538 8.85219 9.82918 8.66459L10.9694 6.38418L10.8281 6.24435C9.15167 4.58522 6.42727 4.58522 4.75085 6.24435C3.08305 7.89495 3.08305 10.5646 4.75085 12.2152L11.6483 19.0415C11.8431 19.2343 12.1569 19.2343 12.3517 19.0415L19.2492 12.2152C20.9169 10.5646 20.9169 7.89495 19.2492 6.24435C17.5727 4.58522 14.8483 4.58522 13.1719 6.24435L12.2701 7.13685Z" fill="currentColor"/>
</svg>
