<svg width="24" height="24" viewBox="0 0 24 24" fill="none" xmlns="http://www.w3.org/2000/svg">
<path fill-rule="evenodd" clip-rule="evenodd" d="M19.0675 16.7223C20.0015 15.3245 20.5 13.6811 20.5 12C20.5 11.8598 20.4966 11.7205 20.4899 11.5821C20.4699 11.1684 20.7891 10.8168 21.2028 10.7968C21.6166 10.7768 21.9682 11.096 21.9882 11.5097C21.996 11.6722 22 11.8357 22 12C22 12.5042 21.9619 13.0056 21.8869 13.5C21.6677 14.9449 21.1334 16.3305 20.3147 17.5557C19.2159 19.2002 17.6541 20.4819 15.8268 21.2388C13.9996 21.9957 11.9889 22.1937 10.0491 21.8079C8.10929 21.422 6.32746 20.4696 4.92894 19.0711C3.53041 17.6725 2.578 15.8907 2.19215 13.9509C1.8063 12.0111 2.00433 10.0004 2.76121 8.17317C3.51809 6.3459 4.79981 4.78412 6.4443 3.6853C7.66954 2.86663 9.05514 2.33235 10.5 2.11313C10.9944 2.03812 11.4958 2 12 2C12.1643 2 12.3278 2.00397 12.4903 2.01182C12.904 2.03182 13.2232 2.38343 13.2032 2.79716C13.1832 3.21089 12.8316 3.53007 12.4179 3.51008C12.2795 3.50339 12.1402 3.5 12 3.5C10.3189 3.5 8.67548 3.99852 7.27766 4.93251C5.87984 5.8665 4.79037 7.19402 4.14703 8.74719C3.50368 10.3004 3.33536 12.0094 3.66333 13.6583C3.9913 15.3071 4.80085 16.8217 5.9896 18.0104C7.17834 19.1992 8.6929 20.0087 10.3417 20.3367C11.9906 20.6646 13.6996 20.4963 15.2528 19.853C16.806 19.2096 18.1335 18.1202 19.0675 16.7223ZM14.4111 3.03569C14.5506 2.64569 14.9799 2.44268 15.3699 2.58224C15.6796 2.69308 15.9822 2.81873 16.2769 2.95835C16.6512 3.1357 16.8109 3.58292 16.6336 3.95725C16.4562 4.33157 16.009 4.49125 15.6347 4.3139C15.3844 4.19532 15.1274 4.08862 14.8645 3.99453C14.4745 3.85497 14.2715 3.42568 14.4111 3.03569ZM17.6564 4.64228C17.9346 4.33545 18.4089 4.31229 18.7158 4.59055C18.9581 4.81035 19.1897 5.04188 19.4095 5.28424C19.6877 5.59107 19.6646 6.06538 19.3577 6.34364C19.0509 6.6219 18.5766 6.59874 18.2983 6.29191C18.1113 6.08569 17.9143 5.88869 17.7081 5.70168C17.4013 5.42342 17.3781 4.94911 17.6564 4.64228ZM20.0428 7.36644C20.4171 7.18909 20.8643 7.34876 21.0417 7.72309C21.1813 8.01776 21.3069 8.32039 21.4178 8.6301C21.5573 9.02009 21.3543 9.44938 20.9643 9.58895C20.5743 9.72851 20.145 9.52549 20.0055 9.1355C19.9114 8.87258 19.8047 8.61562 19.6861 8.36534C19.5088 7.99102 19.6684 7.54379 20.0428 7.36644ZM12 6.75C12 6.33579 11.6642 6 11.25 6C10.8358 6 10.5 6.33579 10.5 6.75V12.75C10.5 13.1642 10.8358 13.5 11.25 13.5H15.25C15.6642 13.5 16 13.1642 16 12.75C16 12.3358 15.6642 12 15.25 12H12V6.75Z" fill="currentColor"/>
</svg>
