<svg width="24" height="24" viewBox="0 0 24 24" fill="none" xmlns="http://www.w3.org/2000/svg">
<path fill-rule="evenodd" clip-rule="evenodd" d="M20.3537 3.64645C20.549 3.84171 20.549 4.15829 20.3537 4.35355L12.2324 12.4749C11.9511 12.7562 11.5695 12.9142 11.1717 12.9142H11.0859V12.8284C11.0859 12.4306 11.244 12.0491 11.5253 11.7678L19.6466 3.64645C19.8419 3.45118 20.1584 3.45118 20.3537 3.64645ZM21.4144 2.58579C22.1954 3.36684 22.1954 4.63317 21.4144 5.41421L13.293 13.5355C12.7304 14.0981 11.9674 14.4142 11.1717 14.4142H10.5859C10.0337 14.4142 9.58594 13.9665 9.58594 13.4142V12.8284C9.58594 12.0328 9.90201 11.2697 10.4646 10.7071L18.5859 2.58579C19.367 1.80474 20.6333 1.80474 21.4144 2.58579ZM3.75 7C3.75 5.20507 5.20507 3.75 7 3.75H12.25C12.6642 3.75 13 3.41421 13 3C13 2.58579 12.6642 2.25 12.25 2.25H7C4.37665 2.25 2.25 4.37665 2.25 7V17.5C2.25 20.1234 4.37665 22.25 7 22.25H17.5C20.1234 22.25 22.25 20.1234 22.25 17.5V12.25C22.25 11.8358 21.9142 11.5 21.5 11.5C21.0858 11.5 20.75 11.8358 20.75 12.25V17.5C20.75 19.2949 19.2949 20.75 17.5 20.75H7C5.20507 20.75 3.75 19.2949 3.75 17.5V7Z" fill="currentColor"/>
</svg>
