<svg width="24" height="24" viewBox="0 0 24 24" fill="none" xmlns="http://www.w3.org/2000/svg">
<path fill-rule="evenodd" clip-rule="evenodd" d="M20.5 12C20.5 16.6944 16.6944 20.5 12 20.5C7.30558 20.5 3.5 16.6944 3.5 12C3.5 7.30558 7.30558 3.5 12 3.5C16.6944 3.5 20.5 7.30558 20.5 12ZM22 12C22 17.5228 17.5228 22 12 22C6.47715 22 2 17.5228 2 12C2 6.47715 6.47715 2 12 2C17.5228 2 22 6.47715 22 12ZM7 13.25C6.58579 13.25 6.25 13.5858 6.25 14C6.25 14.4142 6.58579 14.75 7 14.75H17C17.4142 14.75 17.75 14.4142 17.75 14C17.75 13.5858 17.4142 13.25 17 13.25H7ZM6.25 9C6.25 8.58579 6.58579 8.25 7 8.25C7.41421 8.25 7.75 8.58579 7.75 9C7.75 9.41421 7.41421 9.75 7 9.75C6.58579 9.75 6.25 9.41421 6.25 9ZM17 8.25C16.5858 8.25 16.25 8.58579 16.25 9C16.25 9.41421 16.5858 9.75 17 9.75C17.4142 9.75 17.75 9.41421 17.75 9C17.75 8.58579 17.4142 8.25 17 8.25Z" fill="currentColor"/>
</svg>
