<svg width="24" height="24" viewBox="0 0 24 24" fill="none" xmlns="http://www.w3.org/2000/svg">
<path fill-rule="evenodd" clip-rule="evenodd" d="M20.5 12C20.5 16.6944 16.6944 20.5 12 20.5C7.30558 20.5 3.5 16.6944 3.5 12C3.5 7.30558 7.30558 3.5 12 3.5C16.6944 3.5 20.5 7.30558 20.5 12ZM22 12C22 17.5228 17.5228 22 12 22C6.47715 22 2 17.5228 2 12C2 6.47715 6.47715 2 12 2C17.5228 2 22 6.47715 22 12ZM17.75 16C17.75 16.4142 17.4142 16.75 17 16.75H7C6.58579 16.75 6.25 16.4142 6.25 16C6.25 12.8244 8.82436 10.25 12 10.25C15.1756 10.25 17.75 12.8244 17.75 16ZM16.184 15.25C15.8298 13.2605 14.0913 11.75 12 11.75C9.9087 11.75 8.1702 13.2605 7.81597 15.25H16.184ZM6.25 9C6.25 8.58579 6.58579 8.25 7 8.25C7.41421 8.25 7.75 8.58579 7.75 9C7.75 9.41421 7.41421 9.75 7 9.75C6.58579 9.75 6.25 9.41421 6.25 9ZM17 8.25C16.5858 8.25 16.25 8.58579 16.25 9C16.25 9.41421 16.5858 9.75 17 9.75C17.4142 9.75 17.75 9.41421 17.75 9C17.75 8.58579 17.4142 8.25 17 8.25Z" fill="currentColor"/>
</svg>
