<svg width="24" height="24" viewBox="0 0 24 24" fill="none" xmlns="http://www.w3.org/2000/svg">
<path d="M15.3334 12.9888C14.556 13.5083 13.6709 13.8369 12.75 13.9529V19C12.75 19.4142 12.4142 19.75 12 19.75C11.5858 19.75 11.25 19.4142 11.25 19V13.25C11.25 12.8358 11.5858 12.5 12 12.5C12.89 12.5 13.76 12.2361 14.5001 11.7416C15.2401 11.2471 15.8169 10.5443 16.1575 9.72208C16.4981 8.89981 16.5872 7.99501 16.4135 7.1221C16.2399 6.24918 15.8113 5.44736 15.182 4.81802C14.5526 4.18869 13.7508 3.7601 12.8779 3.58647C12.005 3.41284 11.1002 3.50195 10.2779 3.84254C9.45566 4.18314 8.75285 4.75992 8.25839 5.49994C7.76392 6.23996 7.5 7.10999 7.5 8C7.5 8.41422 7.16421 8.75 6.75 8.75C6.33579 8.75 6 8.41422 6 8V7.5C6 7.4055 6.01748 7.31509 6.04938 7.23181C6.16742 6.31743 6.49513 5.4389 7.01118 4.66658C7.67047 3.67989 8.60754 2.91085 9.7039 2.45673C10.8003 2.0026 12.0067 1.88378 13.1705 2.11529C14.3344 2.3468 15.4035 2.91825 16.2426 3.75736C17.0818 4.59648 17.6532 5.66558 17.8847 6.82946C18.1162 7.99335 17.9974 9.19975 17.5433 10.2961C17.0892 11.3925 16.3201 12.3295 15.3334 12.9888Z" fill="currentColor"/>
<path d="M12 20.5C11.5858 20.5 11.25 20.8358 11.25 21.25C11.25 21.6642 11.5858 22 12 22C12.4142 22 12.75 21.6642 12.75 21.25C12.75 20.8358 12.4142 20.5 12 20.5Z" fill="currentColor"/>
</svg>
