<svg width="24" height="24" viewBox="0 0 24 24" fill="none" xmlns="http://www.w3.org/2000/svg">
<path fill-rule="evenodd" clip-rule="evenodd" d="M2 12C2 9.92893 3.67893 8.25 5.75 8.25H8.25C8.66421 8.25 9 8.58579 9 9C9 9.41421 8.66421 9.75 8.25 9.75H5.75C4.50736 9.75 3.5 10.7574 3.5 12C3.5 13.2426 4.50736 14.25 5.75 14.25H8.25C8.66421 14.25 9 14.5858 9 15C9 15.4142 8.66421 15.75 8.25 15.75H5.75C3.67893 15.75 2 14.0711 2 12ZM22 12C22 9.92893 20.3211 8.25 18.25 8.25H15.75C15.3358 8.25 15 8.58579 15 9C15 9.41421 15.3358 9.75 15.75 9.75H18.25C19.4926 9.75 20.5 10.7574 20.5 12C20.5 13.2426 19.4926 14.25 18.25 14.25H15.75C15.3358 14.25 15 14.5858 15 15C15 15.4142 15.3358 15.75 15.75 15.75H18.25C20.3211 15.75 22 14.0711 22 12ZM9 11.25C8.58579 11.25 8.25 11.5858 8.25 12C8.25 12.4142 8.58579 12.75 9 12.75H15C15.4142 12.75 15.75 12.4142 15.75 12C15.75 11.5858 15.4142 11.25 15 11.25H9Z" fill="currentColor"/>
</svg>
