<svg width="24" height="24" viewBox="0 0 24 24" fill="none" xmlns="http://www.w3.org/2000/svg">
<path d="M10.3101 4.55041L6.31009 4.05041C4.81795 3.8639 3.5 5.02736 3.5 6.53111V17.4688C3.5 18.9726 4.81795 20.1361 6.31009 19.9495L10.3101 19.4495C11.5612 19.2932 12.5 18.2297 12.5 16.9688V14.5H14V16.9688C14 18.9861 12.4979 20.6877 10.4961 20.938L6.49614 21.438C4.10873 21.7364 2 19.8748 2 17.4688V6.53111C2 4.12511 4.10873 2.26357 6.49614 2.562L10.4961 3.062C12.4979 3.31221 14 5.01381 14 7.03111V9.49998H12.5V7.03111C12.5 5.7703 11.5612 4.7068 10.3101 4.55041Z" fill="currentColor"/>
<path d="M18.3144 7.50612C18.0417 7.19439 17.5678 7.16281 17.2561 7.43557C16.9444 7.70833 16.9128 8.18215 17.1856 8.49388L19.5972 11.25H8C7.58579 11.25 7.25 11.5858 7.25 12C7.25 12.4142 7.58579 12.75 8 12.75H19.5972L17.1856 15.5061C16.9128 15.8178 16.9444 16.2917 17.2561 16.5644C17.5678 16.8372 18.0417 16.8056 18.3144 16.4939L21.8144 12.4939C22.0619 12.2111 22.0619 11.7889 21.8144 11.5061L18.3144 7.50612Z" fill="currentColor"/>
</svg>
