<svg width="24" height="24" viewBox="0 0 24 24" fill="none" xmlns="http://www.w3.org/2000/svg">
<path fill-rule="evenodd" clip-rule="evenodd" d="M12 12C14.7614 12 17 9.76142 17 7C17 4.23858 14.7614 2 12 2C9.23858 2 7 4.23858 7 7C7 9.76142 9.23858 12 12 12ZM12 10.5C13.933 10.5 15.5 8.933 15.5 7C15.5 5.067 13.933 3.5 12 3.5C10.067 3.5 8.5 5.067 8.5 7C8.5 8.933 10.067 10.5 12 10.5Z" fill="currentColor"/>
<path d="M15.7536 16.9959C16.7585 16.0014 18.3877 16.0014 19.3926 16.9959C19.4213 17.0243 19.4676 17.0243 19.4963 16.9959C20.5012 16.0014 22.1304 16.0014 23.1352 16.9959C24.1401 17.9904 24.1401 19.6028 23.1352 20.5973L20.1479 23.5538C19.7582 23.9395 19.1307 23.9395 18.741 23.5538L15.7536 20.5973C14.7488 19.6028 14.7488 17.9904 15.7536 16.9959Z" fill="currentColor"/>
<path d="M7.50661 15.5H16.3071C17.3314 15.067 18.4735 15.0807 19.3116 15.8142C18.8272 14.7526 17.7569 14 16.4924 14H7.50661C5.64438 14 4.20354 15.6322 4.43452 17.48C4.7573 20.0622 6.95237 22 9.55468 22H14.4444C14.9182 22 15.3786 21.9357 15.8166 21.815L14.9322 20.93C14.7966 20.7945 14.6757 20.6498 14.5697 20.4979C14.5281 20.4993 14.4863 20.5 14.4444 20.5H9.55468C7.70885 20.5 6.15188 19.1255 5.92294 17.294C5.80386 16.3414 6.54662 15.5 7.50661 15.5Z" fill="currentColor"/>
</svg>
