<svg width="24" height="24" viewBox="0 0 24 24" fill="none" xmlns="http://www.w3.org/2000/svg">
<path fill-rule="evenodd" clip-rule="evenodd" d="M16.9995 7C16.9995 9.76142 14.7609 12 11.9995 12C9.23809 12 6.99952 9.76142 6.99952 7C6.99952 4.23858 9.23809 2 11.9995 2C14.7609 2 16.9995 4.23858 16.9995 7ZM15.4995 7C15.4995 8.933 13.9325 10.5 11.9995 10.5C10.0665 10.5 8.49952 8.933 8.49952 7C8.49952 5.067 10.0665 3.5 11.9995 3.5C13.9325 3.5 15.4995 5.067 15.4995 7Z" fill="currentColor"/>
<path fill-rule="evenodd" clip-rule="evenodd" d="M4.43452 17.48C4.20354 15.6322 5.64438 14 7.50661 14H16.4924C18.3547 14 19.7955 15.6322 19.5645 17.48C19.2417 20.0622 17.0467 22 14.4444 22H9.55468C6.95237 22 4.7573 20.0622 4.43452 17.48ZM5.92294 17.294C5.80386 16.3414 6.54662 15.5 7.50661 15.5H16.4924C17.4524 15.5 18.1952 16.3414 18.0761 17.294C17.8472 19.1255 16.2902 20.5 14.4444 20.5H9.55468C7.70885 20.5 6.15188 19.1255 5.92294 17.294Z" fill="currentColor"/>
</svg>
