<svg width="24" height="24" viewBox="0 0 24 24" fill="none" xmlns="http://www.w3.org/2000/svg">
<path fill-rule="evenodd" clip-rule="evenodd" d="M12 10.5C13.933 10.5 15.5 8.933 15.5 7C15.5 5.067 13.933 3.5 12 3.5C10.067 3.5 8.5 5.067 8.5 7C8.5 8.933 10.067 10.5 12 10.5ZM12 12C14.7614 12 17 9.76142 17 7C17 4.23858 14.7614 2 12 2C9.23858 2 7 4.23858 7 7C7 9.76142 9.23858 12 12 12ZM16.3071 15.5H7.50661C6.54662 15.5 5.80386 16.3414 5.92294 17.294C6.15188 19.1255 7.70885 20.5 9.55468 20.5H14.4444C14.4863 20.5 14.5281 20.4993 14.5697 20.4979C14.6757 20.6498 14.7966 20.7945 14.9322 20.93L15.8166 21.815C15.3786 21.9357 14.9182 22 14.4444 22H9.55468C6.95237 22 4.7573 20.0622 4.43452 17.48C4.20354 15.6322 5.64438 14 7.50661 14H16.4924C17.7569 14 18.8272 14.7526 19.3116 15.8142C18.4735 15.0807 17.3314 15.067 16.3071 15.5ZM15.7536 16.9959C16.7142 16.0453 18.2451 16.0033 19.256 16.87L18.5528 18.2764C18.488 18.406 18.4826 18.5574 18.5381 18.6913C18.5935 18.8253 18.7044 18.9285 18.8419 18.9743L19.8675 19.3162L19.5257 20.3419C19.4383 20.6039 19.5799 20.887 19.8419 20.9743C20.1039 21.0617 20.387 20.9201 20.4743 20.6581L20.9743 19.1581C21.0617 18.8961 20.9201 18.613 20.6581 18.5257L19.705 18.208L20.6395 16.3391C21.5005 16.1078 22.4592 16.3268 23.1352 16.9959C24.1401 17.9904 24.1401 19.6028 23.1352 20.5973L20.1479 23.5538C19.7582 23.9395 19.1307 23.9395 18.741 23.5538L15.7536 20.5973C14.7488 19.6028 14.7488 17.9904 15.7536 16.9959Z" fill="currentColor"/>
</svg>
