<svg width="24" height="24" viewBox="0 0 24 24" fill="none" xmlns="http://www.w3.org/2000/svg">
<path fill-rule="evenodd" clip-rule="evenodd" d="M9.25161 6.69391C9.59397 6.92707 9.59099 7.40902 9.2981 7.70191C9.0052 7.9948 8.53276 7.98203 8.16639 7.78878C7.88423 7.63995 7.57414 7.5454 7.25217 7.51276C6.67918 7.45466 6.1037 7.59619 5.62301 7.91341C5.14232 8.23063 4.78589 8.70409 4.61398 9.25376C4.53788 9.49708 4.5 9.74872 4.5 10V10.0013C4.50001 10.0218 4.50027 10.0423 4.50079 10.0628C4.66036 10.0218 4.82764 10 5 10H9C10.1046 10 11 10.8954 11 12V16C11 17.1046 10.1046 18 9 18H5C3.89543 18 3 17.1046 3 16V12V10.0004V10C3 9.59794 3.0606 9.19532 3.18236 8.80601C3.45742 7.92654 4.0277 7.169 4.79681 6.66145C5.56592 6.1539 6.48668 5.92746 7.40347 6.02041C8.06986 6.08797 8.70445 6.32127 9.25161 6.69391ZM4.5 16V12C4.5 11.7239 4.72386 11.5 5 11.5H9C9.27614 11.5 9.5 11.7239 9.5 12V16C9.5 16.2761 9.27614 16.5 9 16.5H5C4.72386 16.5 4.5 16.2761 4.5 16ZM19.2516 6.69391C19.594 6.92707 19.591 7.40902 19.2981 7.70191C19.0052 7.9948 18.5328 7.98203 18.1664 7.78878C17.8842 7.63995 17.5741 7.5454 17.2522 7.51276C16.6792 7.45466 16.1037 7.59619 15.623 7.91341C15.1423 8.23063 14.7859 8.70409 14.614 9.25376C14.5379 9.49708 14.5 9.74872 14.5 10V10.0013C14.5 10.0218 14.5003 10.0423 14.5008 10.0628C14.6604 10.0218 14.8276 10 15 10H19C20.1046 10 21 10.8954 21 12V16C21 17.1046 20.1046 18 19 18H15C13.8954 18 13 17.1046 13 16V12V10.0007V10C13 9.59794 13.0606 9.19532 13.1824 8.80601C13.4574 7.92654 14.0277 7.169 14.7968 6.66145C15.5659 6.1539 16.4867 5.92746 17.4035 6.02041C18.0699 6.08797 18.7044 6.32127 19.2516 6.69391ZM14.5 16V12C14.5 11.7239 14.7239 11.5 15 11.5H19C19.2761 11.5 19.5 11.7239 19.5 12V16C19.5 16.2761 19.2761 16.5 19 16.5H15C14.7239 16.5 14.5 16.2761 14.5 16Z" fill="currentColor"/>
</svg>
