<svg width="24" height="24" viewBox="0 0 24 24" fill="none" xmlns="http://www.w3.org/2000/svg">
<path fill-rule="evenodd" clip-rule="evenodd" d="M13.8159 7.30792L14.1351 7.66502C14.595 8.17962 15.2591 8.5 16 8.5C17.3807 8.5 18.5 7.38071 18.5 6C18.5 4.61929 17.3807 3.5 16 3.5C14.6193 3.5 13.5 4.61929 13.5 6C13.5 6.30559 13.5542 6.59515 13.6521 6.86184L13.8159 7.30792ZM12.244 7.37893L8.9833 9.33538C8.25082 8.51586 7.18565 8 6 8C3.79086 8 2 9.79086 2 12C2 14.2091 3.79086 16 6 16C7.29602 16 8.44808 15.3836 9.17904 14.428L14.1494 16.9132C14.0521 17.2588 14 17.6233 14 18C14 20.2091 15.7909 22 18 22C20.2091 22 22 20.2091 22 18C22 15.7909 20.2091 14 18 14C16.704 14 15.5519 14.6164 14.821 15.572L9.8506 13.0868C9.94793 12.7412 10 12.3767 10 12C10 11.5154 9.91382 11.0509 9.75596 10.6211L13.0167 8.66462C13.7492 9.48414 14.8143 10 16 10C18.2091 10 20 8.20914 20 6C20 3.79086 18.2091 2 16 2C13.7909 2 12 3.79086 12 6C12 6.4846 12.0862 6.94908 12.244 7.37893ZM8.18409 10.6921L7.86492 10.335C7.40497 9.82038 6.74088 9.5 6 9.5C4.61929 9.5 3.5 10.6193 3.5 12C3.5 13.3807 4.61929 14.5 6 14.5C6.80912 14.5 7.52825 14.1172 7.98763 13.5167L8.27809 13.137L8.40678 12.6801C8.4672 12.4656 8.5 12.2379 8.5 12C8.5 11.6944 8.44585 11.4048 8.34791 11.1382L8.18409 10.6921ZM15.7219 16.863L15.5932 17.3199C15.5328 17.5344 15.5 17.7621 15.5 18C15.5 19.3807 16.6193 20.5 18 20.5C19.3807 20.5 20.5 19.3807 20.5 18C20.5 16.6193 19.3807 15.5 18 15.5C17.1909 15.5 16.4717 15.8828 16.0124 16.4833L15.7219 16.863Z" fill="currentColor"/>
</svg>
