<svg width="24" height="24" viewBox="0 0 24 24" fill="none" xmlns="http://www.w3.org/2000/svg">
    <path d="M1.09816 22.0005L9.9614 19.085C10.1128 18.9476 10.1662 18.8458 10.1946 18.6185L11.7107 10.6493C11.892 10.4214 11.9967 10.4183 12.1772 10.6493L13.6544 18.6185C13.7456 18.961 13.8568 19.0894 14.1986 19.1627C14.1986 19.1627 21.5835 21.6894 22.6343 22.0005C23.6851 22.3116 24.2685 21.6894 23.8783 20.9898C23.488 20.2902 13.1102 1.70833 12.6048 1.28072C12.0995 0.853103 11.7107 0.853103 11.2831 1.28072C10.8555 1.70833 5.63803 12.1567 5.63803 12.1567C5.4255 12.5337 5.30638 12.5176 5.0938 12.1567L4.28581 11.2324C3.93971 10.6515 3.72834 10.6359 3.31397 11.2324L0.00968846 20.9509C-0.0655319 21.7662 0.297247 22.0486 1.09816 22.0005Z" fill="white"/>
</svg>
