<svg width="24" height="24" viewBox="0 0 24 24" fill="currentColor" xmlns="http://www.w3.org/2000/svg">
    <path d="M22.5 8.13703C22.5 3.25594 19.3003 1.82531 19.3003 1.82531C17.6859 1.08516 14.9156 0.773438 12.0375 0.75H11.9667C9.08857 0.773438 6.32014 1.08516 4.7067 1.82531C4.7067 1.82531 1.50654 3.25594 1.50654 8.13703C1.50654 9.255 1.48498 10.5909 1.52014 12.0084C1.63639 16.7812 2.39576 21.4861 6.81186 22.6542C8.84764 23.1928 10.5961 23.3053 12.0037 23.228C14.557 23.0873 15.9881 22.3177 15.9881 22.3177L15.9042 20.4661C15.9042 20.4661 14.0794 21.0413 12.0304 20.9709C10.0003 20.9016 7.85857 20.752 7.53045 18.2611C7.49879 18.0296 7.48313 17.7963 7.48357 17.5627C8.96931 17.8943 10.4811 18.0959 12.0019 18.165C13.5464 18.2358 14.9944 18.0745 16.4653 17.8992C19.2862 17.5627 21.7425 15.8255 22.0509 14.2388C22.5394 11.7384 22.5 8.13703 22.5 8.13703ZM18.7247 14.4258H16.3809V8.68969C16.3809 7.48031 15.8719 6.86672 14.8537 6.86672C13.7287 6.86672 13.1634 7.59469 13.1634 9.03422V12.1748H10.8356V9.03422C10.8356 7.59469 10.2731 6.86672 9.14529 6.86672C8.12717 6.86672 7.61811 7.48031 7.61811 8.68969V14.4258H5.27436V8.51578C5.27436 7.30797 5.58295 6.34875 6.20014 5.63812C6.83764 4.92797 7.67201 4.56375 8.70842 4.56375C9.90748 4.56375 10.8154 5.02406 11.4154 5.94562L12 6.92297L12.5836 5.94562C13.184 5.02406 14.0915 4.56375 15.2906 4.56375C16.327 4.56375 17.1614 4.92797 17.7989 5.63812C18.4173 6.34812 18.7259 7.30734 18.7247 8.51578V14.4258Z" fill="currentColor"/>
</svg>
