<svg width="24" height="24" viewBox="0 0 24 24" fill="none" xmlns="http://www.w3.org/2000/svg">
    <path d="M23.25 5.13265C22.406 5.49938 21.513 5.74099 20.5992 5.84984C21.5595 5.28752 22.2817 4.39417 22.6303 3.33734C21.7224 3.86824 20.7307 4.24075 19.6978 4.4389C19.2629 3.98306 18.7397 3.62042 18.1603 3.37303C17.5808 3.12565 16.9571 2.99868 16.327 2.99984C13.7761 2.99984 11.7117 5.03421 11.7117 7.54203C11.7099 7.89085 11.7499 8.23864 11.8308 8.57797C10.0016 8.49221 8.2104 8.02558 6.57187 7.20793C4.93333 6.39027 3.48351 5.2396 2.31516 3.82953C1.90527 4.52052 1.6885 5.30892 1.6875 6.11234C1.6875 7.68734 2.50922 9.07953 3.75 9.89515C3.01487 9.87771 2.29481 9.68314 1.65094 9.32797V9.38421C1.65094 11.5873 3.24469 13.4202 5.35406 13.8373C4.9574 13.9431 4.54864 13.9967 4.13812 13.9967C3.84683 13.9972 3.5562 13.969 3.27047 13.9123C3.85687 15.717 5.56359 17.0295 7.58531 17.067C5.94252 18.3331 3.9256 19.0174 1.85156 19.0123C1.48341 19.0118 1.11561 18.9899 0.75 18.9467C2.85993 20.294 5.31255 21.0067 7.81594 20.9998C16.3172 20.9998 20.9616 14.0764 20.9616 8.07171C20.9616 7.87484 20.9564 7.67796 20.947 7.48578C21.8485 6.84456 22.6283 6.0477 23.25 5.13265V5.13265Z" fill="white"/>
</svg>
